<svg width="33" height="34" viewBox="0 0 33 34" fill="none" xmlns="http://www.w3.org/2000/svg">
<path d="M32.2209 6.97422C32.1361 6.80922 32.0135 6.66658 31.8631 6.55793C31.7127 6.44927 31.5387 6.37768 31.3554 6.34897C31.1721 6.32026 30.9846 6.33525 30.8082 6.39271C30.6318 6.45018 30.4714 6.5485 30.3402 6.67967L25.8158 11.207C25.5937 11.4259 25.2944 11.5486 24.9825 11.5486C24.6707 11.5486 24.3714 11.4259 24.1493 11.207L22.1934 9.24821C22.084 9.1388 21.9972 9.0089 21.938 8.86594C21.8787 8.72297 21.8482 8.56973 21.8482 8.41498C21.8482 8.26023 21.8787 8.107 21.938 7.96403C21.9972 7.82106 22.084 7.69116 22.1934 7.58175L26.6987 3.07574C26.8338 2.9407 26.934 2.77486 26.9907 2.59249C27.0474 2.41012 27.059 2.21669 27.0243 2.02887C26.9897 1.84105 26.9099 1.66446 26.7919 1.51432C26.6738 1.36418 26.5211 1.24499 26.3467 1.167C22.9438 -0.354389 18.6963 0.439445 16.018 3.09783C13.7426 5.3571 13.0643 8.88738 14.1586 12.7837C14.2176 12.9914 14.218 13.2115 14.1596 13.4194C14.1012 13.6274 13.9865 13.8151 13.828 13.9619L1.56846 25.1588C1.09087 25.5876 0.705636 26.1092 0.436269 26.6918C0.166902 27.2744 0.0190467 27.9058 0.00172184 28.5474C-0.0156031 29.189 0.0979658 29.8274 0.335501 30.4237C0.573036 31.02 0.929557 31.5616 1.38332 32.0156C1.83707 32.4696 2.37856 32.8263 2.97474 33.0641C3.57092 33.3019 4.20929 33.4158 4.85092 33.3987C5.49255 33.3817 6.12398 33.2341 6.70669 32.965C7.28941 32.6959 7.81119 32.3109 8.24021 31.8335L19.5571 19.5467C19.7018 19.3903 19.8864 19.2763 20.091 19.217C20.2956 19.1576 20.5126 19.1553 20.7184 19.2102C21.8277 19.5141 22.9719 19.6718 24.1221 19.6793C26.5816 19.6793 28.74 18.8832 30.2967 17.3493C33.1797 14.509 33.6194 9.69152 32.2209 6.97422ZM4.96988 31.0271C4.48488 31.0801 3.99542 30.9812 3.56903 30.7441C3.14264 30.507 2.80034 30.1434 2.58939 29.7035C2.37844 29.2636 2.30922 28.7691 2.3913 28.2881C2.47337 27.8072 2.70269 27.3636 3.04761 27.0186C3.39253 26.6736 3.83603 26.4441 4.31692 26.3618C4.79781 26.2796 5.29238 26.3486 5.73236 26.5594C6.17234 26.7702 6.53604 27.1124 6.77328 27.5387C7.01052 27.965 7.10959 28.4544 7.05682 28.9394C6.99876 29.4731 6.76025 29.9709 6.38075 30.3506C6.00124 30.7302 5.5035 30.9689 4.96988 31.0271Z" fill="#3EC886"/>
</svg>
