<svg width="12" height="21" viewBox="0 0 12 21" fill="none" xmlns="http://www.w3.org/2000/svg">
<path d="M3.90945 6.81356V14.1394C3.91793 14.6762 4.13713 15.1881 4.51975 15.5647C4.90237 15.9414 5.41772 16.1525 5.9546 16.1525C6.49148 16.1525 7.00684 15.9414 7.38946 15.5647C7.77207 15.1881 7.99128 14.6762 7.99976 14.1394L8.00639 4.51707C8.01196 4.05824 7.92639 3.60288 7.75466 3.17737C7.58293 2.75186 7.32844 2.36467 7.00596 2.03825C6.68347 1.71182 6.29939 1.45266 5.876 1.27578C5.45261 1.09889 4.99831 1.00781 4.53945 1.00781C4.0806 1.00781 3.6263 1.09889 3.20291 1.27578C2.77951 1.45266 2.39544 1.71182 2.07295 2.03825C1.75047 2.36467 1.49598 2.75186 1.32425 3.17737C1.15252 3.60288 1.06695 4.05824 1.07252 4.51707V14.2042C1.09105 15.4845 1.61268 16.7062 2.52465 17.605C3.43662 18.5039 4.66569 19.0078 5.94618 19.0078C7.22668 19.0078 8.45574 18.5039 9.36772 17.605C10.2797 16.7062 10.8013 15.4845 10.8198 14.2042V5.15192" stroke="#3EC886" stroke-width="2" stroke-miterlimit="10" stroke-linecap="square"/>
</svg>
