<svg width="22" height="20" viewBox="0 0 22 20" fill="none" xmlns="http://www.w3.org/2000/svg">
<path d="M1.98083 7.15332C1.72229 7.15306 1.47413 7.25499 1.29042 7.43689C1.10671 7.6188 1.00234 7.86595 1.00006 8.12447C0.99901 8.21408 1.01199 8.3033 1.03852 8.38889L3.52409 17.1533C3.63929 17.5627 3.88549 17.923 4.225 18.1792C4.5645 18.4353 4.9786 18.5732 5.40389 18.5716H16.5962C17.0223 18.5719 17.437 18.4338 17.7778 18.178C18.1185 17.9222 18.367 17.5626 18.4856 17.1533L20.9712 8.38889L21 8.12447C20.9977 7.86595 20.8933 7.6188 20.7096 7.43689C20.5259 7.25499 20.2778 7.15306 20.0192 7.15332H1.98083ZM11.275 14.849C10.8754 14.847 10.4854 14.7267 10.1541 14.5032C9.82282 14.2798 9.56515 13.9632 9.41361 13.5934C9.26207 13.2237 9.22346 12.8173 9.30264 12.4256C9.38182 12.034 9.57524 11.6745 9.8585 11.3927C10.1418 11.1108 10.5022 10.9192 10.8942 10.8419C11.2863 10.7647 11.6925 10.8054 12.0614 10.9587C12.4304 11.1121 12.7457 11.3714 12.9675 11.7037C13.1893 12.0361 13.3077 12.4268 13.3077 12.8264C13.3052 13.3638 13.0899 13.8783 12.7089 14.2573C12.328 14.6364 11.8124 14.8491 11.275 14.849V14.849Z" stroke="white" stroke-linejoin="round"/>
<path d="M6.38281 7.15383L10.9982 1L15.6136 7.15383" stroke="white" stroke-linejoin="round"/>
</svg>
