<svg width="14" height="13" viewBox="0 0 14 13" fill="none" xmlns="http://www.w3.org/2000/svg">
<path d="M1.46774 6.87238L7.44775 12.2308C7.48685 12.2658 7.49785 12.2996 7.49969 12.3233C7.50138 12.345 7.49647 12.3717 7.47628 12.4002L7.43774 12.4402C7.34999 12.51 7.2026 12.5218 7.09775 12.4595L7.04626 12.4197L0.552254 6.60049C0.513145 6.56544 0.502147 6.53168 0.500309 6.50798C0.498624 6.48625 0.50353 6.45954 0.523725 6.43106L0.565924 6.38726L7.05972 0.568235C7.16125 0.477255 7.34622 0.477255 7.44775 0.568235C7.48686 0.60328 7.49785 0.637044 7.49969 0.660742C7.50138 0.682476 7.49647 0.709185 7.47628 0.737659L7.43408 0.781461L1.46774 6.12762L1.05216 6.5L1.46774 6.87238Z" fill="#5C5C5C" stroke="#5C5C5C"/>
<path d="M13.7814 0.195865C14.0464 0.433277 14.0705 0.804788 13.8537 1.06658L13.7814 1.14158L7.80141 6.5L13.7814 11.8584C14.0464 12.0958 14.0705 12.4673 13.8537 12.7291L13.7814 12.8041C13.5165 13.0415 13.1019 13.0631 12.8097 12.8689L12.726 12.8041L6.21858 6.97286C5.95364 6.73545 5.92955 6.36394 6.14632 6.10214L6.21858 6.02714L12.726 0.195865C13.0175 -0.0652883 13.49 -0.0652883 13.7814 0.195865Z" fill="#5C5C5C" fill-opacity="0.5"/>
</svg>
