<svg width="16" height="19" viewBox="0 0 16 19" fill="none" xmlns="http://www.w3.org/2000/svg">
<path d="M14.3125 2.5H12.625V0.671875C12.625 0.460938 12.4141 0.25 12.2031 0.25H11.9219C11.6758 0.25 11.5 0.460938 11.5 0.671875V2.5H4.75V0.671875C4.75 0.460938 4.53906 0.25 4.32812 0.25H4.04688C3.80078 0.25 3.625 0.460938 3.625 0.671875V2.5H1.9375C0.988281 2.5 0.25 3.27344 0.25 4.1875V16.5625C0.25 17.5117 0.988281 18.25 1.9375 18.25H14.3125C15.2266 18.25 16 17.5117 16 16.5625V4.1875C16 3.27344 15.2266 2.5 14.3125 2.5ZM1.9375 3.625H14.3125C14.5938 3.625 14.875 3.90625 14.875 4.1875V5.875H1.375V4.1875C1.375 3.90625 1.62109 3.625 1.9375 3.625ZM14.3125 17.125H1.9375C1.62109 17.125 1.375 16.8789 1.375 16.5625V7H14.875V16.5625C14.875 16.8789 14.5938 17.125 14.3125 17.125Z" fill="#6C6C6C"/>
</svg>
