<svg width="22" height="24" viewBox="0 0 22 24" fill="none" xmlns="http://www.w3.org/2000/svg">
<path fill-rule="evenodd" clip-rule="evenodd" d="M16.7139 6C16.7521 5.91495 16.77 5.82227 16.7662 5.72919H16.7976C16.6634 2.52709 14.0194 0 10.8035 0C7.58755 0 4.94362 2.52709 4.80942 5.72919C4.7936 5.81877 4.7936 5.91042 4.80942 6H4.71805C3.18026 6 1.53641 7.01516 1.05917 9.74409L0.125886 17.1777C-0.637708 22.6355 2.17274 24 5.84223 24H15.7902C19.4491 24 22.1747 22.0243 21.4959 17.1777L20.5732 9.74409C20.0111 7.09157 18.4203 6 16.9037 6H16.7139ZM14.9894 6C14.956 5.91353 14.9383 5.82183 14.9371 5.72919C14.9371 3.42819 13.0654 1.56286 10.7565 1.56286C8.44752 1.56286 6.57576 3.42819 6.57576 5.72919C6.59158 5.81877 6.59158 5.91042 6.57576 6H14.9894ZM7.31326 12.1777C6.72754 12.1777 6.25272 11.689 6.25272 11.0861C6.25272 10.4833 6.72754 9.99457 7.31326 9.99457C7.89899 9.99457 8.37381 10.4833 8.37381 11.0861C8.37381 11.689 7.89899 12.1777 7.31326 12.1777ZM13.2045 11.0861C13.2045 11.689 13.6793 12.1777 14.265 12.1777C14.8508 12.1777 15.3256 11.689 15.3256 11.0861C15.3256 10.4833 14.8508 9.99457 14.265 9.99457C13.6793 9.99457 13.2045 10.4833 13.2045 11.0861Z" fill="#D9D9D9"/>
</svg>
