<svg width="31" height="31" viewBox="0 0 31 31" fill="none" xmlns="http://www.w3.org/2000/svg">
<path d="M19.0938 15L28.75 5.4375L30.7188 3.46875C31 3.1875 31 2.71875 30.7188 2.34375L28.6562 0.28125C28.2812 0 27.8125 0 27.5312 0.28125L16 11.9062L4.375 0.28125C4.09375 0 3.625 0 3.25 0.28125L1.1875 2.34375C0.90625 2.71875 0.90625 3.1875 1.1875 3.46875L12.8125 15L1.1875 26.625C0.90625 26.9062 0.90625 27.375 1.1875 27.75L3.25 29.8125C3.625 30.0938 4.09375 30.0938 4.375 29.8125L16 18.1875L25.5625 27.8438L27.5312 29.8125C27.8125 30.0938 28.2812 30.0938 28.6562 29.8125L30.7188 27.75C31 27.375 31 26.9062 30.7188 26.625L19.0938 15Z" fill="#E05C5C"/>
</svg>
