<svg width="16" height="16" viewBox="0 0 16 16" fill="none" xmlns="http://www.w3.org/2000/svg">
<path d="M4.73598 9.17571C5.86397 9.17571 6.76797 10.0885 6.76797 11.2245V13.9517C6.76797 15.0797 5.86397 15.9997 4.73598 15.9997H2.03199C0.911995 15.9997 0 15.0797 0 13.9517V11.2245C0 10.0885 0.911995 9.17571 2.03199 9.17571H4.73598ZM13.968 9.17571C15.088 9.17571 16 10.0885 16 11.2245V13.9517C16 15.0797 15.088 15.9997 13.968 15.9997H11.264C10.136 15.9997 9.23203 15.0797 9.23203 13.9517V11.2245C9.23203 10.0885 10.136 9.17571 11.264 9.17571H13.968ZM4.73598 0C5.86397 0 6.76797 0.919996 6.76797 2.04879V4.77598C6.76797 5.91197 5.86397 6.82397 4.73598 6.82397H2.03199C0.911995 6.82397 0 5.91197 0 4.77598V2.04879C0 0.919996 0.911995 0 2.03199 0H4.73598ZM13.968 0C15.088 0 16 0.919996 16 2.04879V4.77598C16 5.91197 15.088 6.82397 13.968 6.82397H11.264C10.136 6.82397 9.23203 5.91197 9.23203 4.77598V2.04879C9.23203 0.919996 10.136 0 11.264 0H13.968Z" fill="#3EC886"/>
</svg>
