<svg width="428" height="308" viewBox="0 0 428 308" fill="none" xmlns="http://www.w3.org/2000/svg">
<g clip-path="url(#clip0)">
<path d="M0 307.792H68.845" stroke="#3F3D56" stroke-miterlimit="10"/>
<path d="M398.39 53.0471H108.824C104.381 53.0471 100.779 56.6533 100.779 61.1017V252.194C100.779 256.642 104.381 260.248 108.824 260.248H398.39C402.833 260.248 406.434 256.642 406.434 252.194V61.1017C406.434 56.6533 402.833 53.0471 398.39 53.0471Z" fill="#F2F2F2"/>
<path d="M389.058 39.9673H99.492C95.049 39.9673 91.4473 43.5734 91.4473 48.0218V239.114C91.4473 243.562 95.049 247.168 99.492 247.168H389.058C393.501 247.168 397.102 243.562 397.102 239.114V48.0218C397.102 43.5734 393.501 39.9673 389.058 39.9673Z" stroke="#3F3D56" stroke-miterlimit="10"/>
<path d="M91.4473 59.8321H397.102" stroke="#3F3D56" stroke-miterlimit="10"/>
<path opacity="0.3" d="M354.555 106.405H277.077C275.453 106.405 274.136 107.723 274.136 109.35V116.332C274.136 117.958 275.453 119.277 277.077 119.277H354.555C356.179 119.277 357.496 117.958 357.496 116.332V109.35C357.496 107.723 356.179 106.405 354.555 106.405Z" fill="#3EC886"/>
<path opacity="0.3" d="M370.522 142.115H261.11C259.486 142.115 258.169 143.433 258.169 145.06V149.55C258.169 151.177 259.486 152.495 261.11 152.495H370.522C372.147 152.495 373.464 151.177 373.464 149.55V145.06C373.464 143.433 372.147 142.115 370.522 142.115Z" fill="#3EC886"/>
<path opacity="0.3" d="M370.522 170.35H261.11C259.486 170.35 258.169 171.669 258.169 173.295V177.786C258.169 179.413 259.486 180.731 261.11 180.731H370.522C372.147 180.731 373.464 179.413 373.464 177.786V173.295C373.464 171.669 372.147 170.35 370.522 170.35Z" fill="#3EC886"/>
<path opacity="0.3" d="M370.522 198.586H261.11C259.486 198.586 258.169 199.905 258.169 201.531V206.022C258.169 207.648 259.486 208.967 261.11 208.967H370.522C372.147 208.967 373.464 207.648 373.464 206.022V201.531C373.464 199.905 372.147 198.586 370.522 198.586Z" fill="#3EC886"/>
<path d="M358.702 102.252H281.225C279.6 102.252 278.283 103.571 278.283 105.197V112.179C278.283 113.806 279.6 115.124 281.225 115.124H358.702C360.327 115.124 361.644 113.806 361.644 112.179V105.197C361.644 103.571 360.327 102.252 358.702 102.252Z" stroke="#3F3D56" stroke-miterlimit="10"/>
<path d="M374.669 137.962H265.257C263.632 137.962 262.315 139.281 262.315 140.907V145.398C262.315 147.024 263.632 148.343 265.257 148.343H374.669C376.293 148.343 377.61 147.024 377.61 145.398V140.907C377.61 139.281 376.293 137.962 374.669 137.962Z" stroke="#3F3D56" stroke-miterlimit="10"/>
<path d="M374.669 166.198H265.257C263.632 166.198 262.315 167.517 262.315 169.143V173.634C262.315 175.26 263.632 176.579 265.257 176.579H374.669C376.293 176.579 377.61 175.26 377.61 173.634V169.143C377.61 167.517 376.293 166.198 374.669 166.198Z" stroke="#3F3D56" stroke-miterlimit="10"/>
<path d="M374.669 194.434H265.257C263.632 194.434 262.315 195.752 262.315 197.379V201.87C262.315 203.496 263.632 204.815 265.257 204.815H374.669C376.293 204.815 377.61 203.496 377.61 201.87V197.379C377.61 195.752 376.293 194.434 374.669 194.434Z" stroke="#3F3D56" stroke-miterlimit="10"/>
<path opacity="0.3" d="M114.672 58.6528C118.108 58.6528 120.893 55.8642 120.893 52.4243C120.893 48.9844 118.108 46.1958 114.672 46.1958C111.236 46.1958 108.451 48.9844 108.451 52.4243C108.451 55.8642 111.236 58.6528 114.672 58.6528Z" fill="#3EC886"/>
<path opacity="0.3" d="M132.091 58.6528C135.527 58.6528 138.312 55.8642 138.312 52.4243C138.312 48.9844 135.527 46.1958 132.091 46.1958C128.655 46.1958 125.87 48.9844 125.87 52.4243C125.87 55.8642 128.655 58.6528 132.091 58.6528Z" fill="#3EC886"/>
<path opacity="0.3" d="M149.51 58.6528C152.946 58.6528 155.731 55.8642 155.731 52.4243C155.731 48.9844 152.946 46.1958 149.51 46.1958C146.074 46.1958 143.289 48.9844 143.289 52.4243C143.289 55.8642 146.074 58.6528 149.51 58.6528Z" fill="#3EC886"/>
<path d="M117.16 56.1614C120.596 56.1614 123.381 53.3728 123.381 49.9329C123.381 46.493 120.596 43.7044 117.16 43.7044C113.725 43.7044 110.939 46.493 110.939 49.9329C110.939 53.3728 113.725 56.1614 117.16 56.1614Z" stroke="#3F3D56" stroke-miterlimit="10"/>
<path d="M134.579 56.1614C138.015 56.1614 140.8 53.3728 140.8 49.9329C140.8 46.493 138.015 43.7044 134.579 43.7044C131.144 43.7044 128.358 46.493 128.358 49.9329C128.358 53.3728 131.144 56.1614 134.579 56.1614Z" stroke="#3F3D56" stroke-miterlimit="10"/>
<path d="M151.998 56.1614C155.434 56.1614 158.219 53.3728 158.219 49.9329C158.219 46.493 155.434 43.7044 151.998 43.7044C148.563 43.7044 145.777 46.493 145.777 49.9329C145.777 53.3728 148.563 56.1614 151.998 56.1614Z" stroke="#3F3D56" stroke-miterlimit="10"/>
<path d="M188.019 238.449C186.977 233.645 186.701 227.084 187.051 222.52C187.051 222.52 181.785 199.356 177.641 197.194L177.64 197.196C177.577 197.277 175.566 199.917 175.31 208.085C175.051 216.382 172.117 221.828 172.117 221.828C172.117 221.828 173.067 232.17 172.524 238.448L188.019 238.449Z" fill="#3EC886"/>
<path d="M226.329 91.0409H130.752C129.458 91.0409 128.176 91.2962 126.98 91.7923C125.783 92.2883 124.697 93.0154 123.781 93.932C122.866 94.8486 122.139 95.9367 121.644 97.1343C121.149 98.3319 120.894 99.6154 120.894 100.912V228.578C120.894 229.874 121.149 231.158 121.644 232.355C122.139 233.553 122.866 234.641 123.781 235.557C124.697 236.474 125.783 237.201 126.98 237.697C128.176 238.193 129.458 238.449 130.752 238.449H164.285C163.165 233.798 161.773 226.535 163.183 221.485L163.183 221.482L163.183 221.484C163.249 221.248 163.319 221.016 163.397 220.79C164.366 217.513 164.689 214.079 164.348 210.678C164.971 207.772 164.971 204.767 164.348 201.862C163.312 197.022 162.587 192.268 162.587 192.268C162.587 192.268 162.016 185.872 162.514 181.952C162.525 181.865 162.538 181.784 162.55 181.7C162.374 181.66 162.276 181.637 162.276 181.637C162.276 181.637 163.743 174.982 164.261 170.746C164.383 169.747 164.544 168.479 164.719 167.128C164.241 167.048 163.77 166.929 163.312 166.771C158.65 165.128 157.182 150.262 157.182 150.262V145.551C157.182 145.551 155.628 138.334 161.067 135.136C166.304 132.057 168.395 131.214 168.543 131.156C168.583 131.127 168.622 131.101 168.663 131.07C169.255 130.604 169.723 130.001 170.027 129.312C170.034 129.193 170.036 129.075 170.032 128.958C169.944 127.269 168.77 125.733 167.655 124.393C166.705 123.251 165.755 122.108 164.805 120.965C164.479 120.624 164.229 120.219 164.071 119.775C164.011 119.53 163.984 119.278 163.993 119.026C163.992 118.933 163.993 118.84 163.995 118.747C164.01 117.895 164.033 117.043 164.064 116.191C164.091 115.447 164.278 114.508 165.006 114.355C165.384 114.275 165.886 114.414 166.086 114.082C166.153 113.946 166.17 113.79 166.134 113.642C166.132 113.653 166.131 113.665 166.128 113.675C166.125 113.662 166.123 113.648 166.121 113.634C165.971 113.037 165.88 112.427 165.851 111.813C165.843 111.535 165.882 111.259 165.968 110.995C166.389 109.759 167.841 109.252 169.124 109.019C170.407 108.786 171.848 108.586 172.653 107.559C172.869 107.218 173.102 106.889 173.353 106.573C173.723 106.237 174.177 106.008 174.666 105.91C176.259 105.507 177.941 105.656 179.438 106.334C180.059 106.618 180.682 107 181.363 106.956C182.07 106.912 182.674 106.413 183.373 106.292C184.5 106.096 185.578 106.942 186.134 107.944C186.487 108.581 186.664 109.301 186.645 110.03C186.659 110.755 186.397 111.458 185.914 111.998C185.428 112.514 184.704 112.868 184.503 113.547C184.421 113.823 184.44 114.121 184.367 114.4C184.358 114.435 184.343 114.467 184.332 114.501C184.345 114.519 184.359 114.535 184.373 114.552C185.221 115.672 185.79 116.979 186.032 118.364C186.274 119.749 186.181 121.172 185.762 122.514C185.342 123.856 184.608 125.078 183.621 126.078C182.634 127.078 181.423 127.827 180.088 128.263C180.084 128.35 180.081 128.438 180.081 128.526C180.056 129.071 180.149 129.615 180.352 130.121C180.555 130.627 180.864 131.083 181.259 131.459L188.951 134.618C188.951 134.618 193.582 134.056 195.253 140.975C195.521 142.125 195.617 143.308 195.539 144.486C195.478 145.53 195.62 147.366 196.807 149.743C198.706 153.546 198.274 162.276 194.39 163.14C190.71 163.959 189.279 163.615 189.138 163.576L189.129 163.729C189.19 165.367 189.772 179.495 191.886 181.205C192.471 181.677 192.359 181.997 191.879 182.212L191.88 182.213C191.88 182.213 191.884 182.304 191.893 182.468C191.957 183.501 192.283 187.436 193.699 189.675C195.339 192.268 195.167 207.221 195.167 207.221L196.288 216.038C196.288 216.038 195.598 221.483 196.288 222.433C196.68 222.972 197.155 231.321 197.493 238.448H226.329C228.944 238.448 231.452 237.409 233.301 235.557C235.149 233.706 236.188 231.196 236.188 228.578V100.912C236.188 99.6154 235.933 98.3319 235.438 97.1343C234.942 95.9367 234.216 94.8486 233.301 93.932C232.385 93.0154 231.298 92.2883 230.102 91.7923C228.906 91.2962 227.624 91.0409 226.329 91.0409Z" fill="#3EC886"/>
<path d="M216.375 79.8296H120.798C115.353 79.8296 110.939 84.2489 110.939 89.7004V217.366C110.939 222.818 115.353 227.237 120.798 227.237H216.375C221.82 227.237 226.234 222.818 226.234 217.366V89.7004C226.234 84.2489 221.82 79.8296 216.375 79.8296Z" stroke="#3F3D56" stroke-miterlimit="10"/>
<path d="M41.8142 133.552C41.8142 133.552 37.9472 132.407 37.1177 133.652C36.2882 134.898 38.2485 143.928 38.2485 143.928L46.7695 144.447L43.7958 136.929L41.8142 133.552Z" fill="#2F2E41"/>
<path d="M12.0036 207.708C12.0036 207.708 19.7568 224.75 13.786 224.215C7.8151 223.679 5.49805 207.708 5.49805 207.708H12.0036Z" fill="#A0616A"/>
<path d="M62.711 205.933C62.711 205.933 59.3097 224.347 64.9735 222.38C70.6372 220.413 69.023 204.355 69.023 204.355L62.711 205.933Z" fill="#A0616A"/>
<path d="M40.1652 129.279C40.1652 129.279 40.0761 137.844 43.3734 138.29C46.6708 138.736 41.5019 143.287 41.5019 143.287L35.6202 144.447L27.1541 143.822L23.4111 139.004C23.4111 139.004 30.0058 135.881 27.1541 126.156L40.1652 129.279Z" fill="#A0616A"/>
<path opacity="0.1" d="M40.1652 129.279C40.1652 129.279 40.0761 137.844 43.3734 138.29C46.6708 138.736 41.5019 143.287 41.5019 143.287L35.6202 144.447L27.1541 143.822L23.4111 139.004C23.4111 139.004 30.0058 135.881 27.1541 126.156L40.1652 129.279Z" fill="black"/>
<path d="M55.3152 201.73C55.3152 201.73 59.5037 210.742 56.2064 239.026C56.2064 239.026 57.1867 249.019 56.3846 250.893C55.5825 252.767 48.9878 278.196 48.9878 278.196C48.9878 278.196 40.5217 280.07 39.3632 274.449C39.3632 274.449 40.5217 266.418 40.4326 265.169C40.3435 263.92 42.304 250.269 42.304 250.269L38.2938 223.858L35.2638 247.681C35.2638 247.681 35.2637 254.551 34.2835 256.068C33.3032 257.585 34.2835 288.1 34.2835 288.1C34.2835 288.1 37.0461 292.74 32.8576 292.829C28.6691 292.919 24.9261 292.74 24.5696 289.796C24.2132 286.851 24.0349 283.907 23.1438 282.122C22.2526 280.338 21.0941 259.905 21.3614 252.767C21.6288 245.629 15.4797 208.957 17.4402 205.12C19.4008 201.284 55.3152 201.73 55.3152 201.73Z" fill="#2F2E41"/>
<path d="M35.6199 132.491C41.5261 132.491 46.314 127.697 46.314 121.784C46.314 115.87 41.5261 111.077 35.6199 111.077C29.7137 111.077 24.9258 115.87 24.9258 121.784C24.9258 127.697 29.7137 132.491 35.6199 132.491Z" fill="#A0616A"/>
<path d="M24.9257 139.183C24.9257 139.183 31.4312 144.001 40.8777 140.164C40.8777 140.164 43.9968 138.647 43.7294 136.327C43.4621 134.008 50.235 154.976 50.235 154.976L57.0971 191.469L56.7406 206.37C56.7406 206.37 53.7106 204.853 44.2642 208.243C34.8177 211.634 19.4004 204.407 19.4004 204.407L19.9351 166.129L20.4698 143.822L21.8957 138.915C21.8957 138.915 22.6086 137.577 24.9257 139.183Z" fill="#F2F2F2"/>
<path d="M40.4619 133.193C40.4619 133.193 42.0362 132.937 43.5512 135.346C45.0662 137.755 48.6309 139.272 48.6309 139.272C48.6309 139.272 57.2753 139.807 58.5229 144.447C59.7706 149.087 62.8897 155.422 64.4047 167.11C65.9197 178.799 68.9497 197.447 69.3952 198.964C69.8408 200.481 68.7714 205.12 70.0191 206.548C71.2667 207.976 61.1964 207.976 61.1964 207.976C61.1964 207.976 60.3053 200.659 59.6814 200.659C59.0576 200.659 59.2358 205.567 59.8597 209.136C60.4835 212.705 55.3147 209.136 55.3147 209.136C55.3147 209.136 51.3044 192.807 47.4723 178.085C43.6403 163.363 41.4124 155.243 42.1253 151.942C42.8382 148.641 44.7988 139.183 43.3729 138.29C41.9471 137.398 40.4619 133.193 40.4619 133.193Z" fill="#2F2E41"/>
<path d="M27.6104 133.185C27.6104 133.185 25.2822 134.454 19.4004 138.647C13.5186 142.841 9.50835 146.053 9.50835 146.053C9.50835 146.053 7.1913 147.838 5.76543 158.455C4.33955 169.073 1.13132 196.555 2.37897 200.035C3.62661 203.514 4.0722 205.567 3.62661 207.619C3.18102 209.671 12.9839 209.582 13.1622 209.136C13.3404 208.689 12.8948 200.57 13.3404 200.391C13.786 200.213 16.1922 205.21 16.6378 209.403C17.0833 213.597 22.2522 216.898 23.4107 216.898C24.5692 216.898 30.5401 192.718 30.6292 176.211C30.7183 159.705 28.6686 145.785 27.1536 143.822C25.6386 141.859 27.6104 133.185 27.6104 133.185Z" fill="#2F2E41"/>
<path d="M43.2837 278.999C43.2837 278.999 43.9967 277.036 46.492 277.661C48.9873 278.285 50.6805 276.055 50.6805 276.055C50.6805 276.055 52.0172 275.876 51.1261 277.572C50.2349 279.267 49.522 280.427 49.522 280.427C49.522 280.427 54.869 292.651 51.3934 295.595C47.9178 298.54 43.9076 296.755 43.9076 296.755C43.9076 296.755 39.9864 293.989 40.1646 286.673C40.1646 286.673 39.9864 284.353 37.8476 280.605C35.7088 276.858 34.1047 271.147 36.6891 270.077C39.2735 269.006 39.9387 268.966 39.9387 268.966C39.9387 268.966 38.7293 274.504 41.8531 276.44L43.2837 278.999Z" fill="#3F3D56"/>
<path d="M26.7082 292.829C26.7082 292.829 24.5694 288.814 28.134 288.368C31.6987 287.922 35.5308 287.654 35.3526 289.528C35.1743 291.402 34.7287 294.257 34.7287 294.257L35.3526 296.309C35.3526 296.309 35.5308 301.395 36.1546 302.02C36.7784 302.644 40.1649 307.998 32.9464 307.998C25.7279 307.998 23.5891 307.195 24.2129 305.499C24.8367 303.804 25.0149 295.417 25.0149 295.417L26.7082 292.829Z" fill="#3F3D56"/>
<path d="M32.2336 113.218C32.2336 113.218 37.2242 114.556 39.8086 115.092C42.393 115.627 42.1256 114.11 42.1256 114.11C42.1256 114.11 45.5121 114.556 45.3338 114.199C45.1556 113.843 46.7597 111.969 44.8883 109.827C43.0168 107.686 43.5515 106.08 43.5515 106.08H41.9474L41.5018 105.455H39.0065C39.0065 105.455 37.135 104.742 32.2336 105.455C27.3321 106.169 20.6483 106.348 20.1136 109.292C19.5789 112.236 16.8163 115.895 17.7965 117.59C18.7768 119.285 24.3912 126.245 24.9259 129.189C25.4606 132.134 27.9573 132.788 27.8675 130.944C27.7777 129.1 25.2824 122.676 27.4212 122.408C29.56 122.141 33.2139 116.698 32.2336 113.218Z" fill="#2F2E41"/>
<path d="M387.722 3.09656C385.955 3.19654 384.249 3.78759 382.798 4.80346C381.347 5.81932 380.207 7.21983 379.507 8.84794C377.452 13.8199 380.097 19.6601 384.068 23.2857C388.039 26.9113 393.14 28.9836 397.774 31.7076C403.999 35.3663 409.593 40.4453 412.707 46.9648C415.822 53.4844 416.153 61.5603 412.492 67.7887C409.094 73.5698 402.915 77.0297 397.022 80.2207" stroke="#3F3D56" stroke-miterlimit="10"/>
<path d="M392.955 7.05896C396.963 7.05896 400.213 5.47875 400.213 3.52948C400.213 1.5802 396.963 0 392.955 0C388.947 0 385.697 1.5802 385.697 3.52948C385.697 5.47875 388.947 7.05896 392.955 7.05896Z" fill="#3EC886"/>
<path d="M398.762 30.312C402.77 30.312 406.019 28.7318 406.019 26.7825C406.019 24.8332 402.77 23.253 398.762 23.253C394.753 23.253 391.504 24.8332 391.504 26.7825C391.504 28.7318 394.753 30.312 398.762 30.312Z" fill="#3EC886"/>
<path d="M385.49 34.0491C389.499 34.0491 392.748 32.4689 392.748 30.5196C392.748 28.5703 389.499 26.9901 385.49 26.9901C381.482 26.9901 378.232 28.5703 378.232 30.5196C378.232 32.4689 381.482 34.0491 385.49 34.0491Z" fill="#3EC886"/>
<path d="M406.227 53.565C410.235 53.565 413.484 51.9848 413.484 50.0355C413.484 48.0863 410.235 46.5061 406.227 46.5061C402.218 46.5061 398.969 48.0863 398.969 50.0355C398.969 51.9848 402.218 53.565 406.227 53.565Z" fill="#3EC886"/>
<path d="M420.742 53.565C424.75 53.565 428 51.9848 428 50.0355C428 48.0863 424.75 46.5061 420.742 46.5061C416.734 46.5061 413.484 48.0863 413.484 50.0355C413.484 51.9848 416.734 53.565 420.742 53.565Z" fill="#3EC886"/>
</g>
<defs>
<clipPath id="clip0">
<rect width="428" height="308" fill="white"/>
</clipPath>
</defs>
</svg>
