<svg width="44" height="38" viewBox="0 0 44 38" fill="none" xmlns="http://www.w3.org/2000/svg">
<path d="M44 18.5792L38.3501 3.01863H27.998C27.1785 1.23853 25.3789 -0.000976562 23.2941 -0.000976562H0V30.1951H0.0592706C0.0213961 30.4776 0 30.7652 0 31.0578C0 34.6257 2.90271 37.5284 6.47059 37.5284C9.89344 37.5284 12.7023 34.8565 12.9252 31.4892H22.016C22.239 34.8565 25.0478 37.5284 28.4707 37.5284C31.8935 37.5284 34.7024 34.8565 34.9253 31.4892H44V18.5792ZM40.8122 17.3833H33.6471V10.9128H38.4628L40.8122 17.3833ZM2.58824 2.58726H23.2941C24.7213 2.58726 25.8824 3.74834 25.8824 5.17549V18.548H18.3111C16.8423 18.548 15.6367 17.4036 15.5368 15.9598H18.1176V13.3716H11.583C10.1912 13.3716 9.05882 12.2392 9.05882 10.8474V10.7833H12.9412V8.1951H6.61277C4.3937 8.1951 2.58824 6.38972 2.58824 4.17057V2.58726ZM6.47059 34.9402C4.32986 34.9402 2.58824 33.1986 2.58824 31.0578C2.58824 28.9171 4.32986 27.1755 6.47059 27.1755C8.61132 27.1755 10.3529 28.9171 10.3529 31.0578C10.3529 33.1986 8.61132 34.9402 6.47059 34.9402ZM22.371 28.901H12.5702C11.6798 26.3906 9.28245 24.5873 6.47059 24.5873C5.01505 24.5873 3.67046 25.0707 2.58824 25.8849V9.41244C3.66882 10.244 5.01212 10.7487 6.47059 10.7797V10.8474C6.47059 13.6664 8.76402 15.9598 11.583 15.9598H12.9461C13.0484 18.8314 15.415 21.1363 18.3111 21.1363H25.8824V25.1292C24.2513 25.844 22.9701 27.212 22.371 28.901ZM28.4706 34.9402C26.3299 34.9402 24.5882 33.1986 24.5882 31.0578C24.5882 28.9171 26.3299 27.1755 28.4706 27.1755C30.6113 27.1755 32.3529 28.9171 32.3529 31.0578C32.3529 33.1986 30.6113 34.9402 28.4706 34.9402ZM34.5702 28.901C33.6798 26.3906 31.2824 24.5873 28.4706 24.5873V5.60687H36.5362L37.523 8.32451H31.0588V19.9716H41.4118V23.7245H37.5294V26.3128H41.4118V28.901H34.5702Z" fill="#3EC886"/>
</svg>
