<svg width="24" height="24" viewBox="0 0 24 24" fill="none" xmlns="http://www.w3.org/2000/svg">
<path d="M1.83018 17.4082C1.66475 17.4082 1.50283 17.3604 1.36397 17.2705C1.2251 17.1806 1.11523 17.0524 1.04761 16.9014C0.229412 15.0741 -0.118497 13.0711 0.035587 11.0749C0.189671 9.07865 0.840851 7.15273 1.92979 5.4726C3.01872 3.79247 4.51079 2.41156 6.27003 1.45569C8.02927 0.49982 9.99974 -0.000609531 12.0019 5.57163e-07C12.2292 5.57163e-07 12.4472 0.0902931 12.6079 0.251015C12.7686 0.411737 12.8589 0.629722 12.8589 0.857017V11.9982C12.8589 12.1637 12.8111 12.3257 12.721 12.4646C12.631 12.6034 12.5027 12.7133 12.3517 12.7808L2.17995 17.331C2.07013 17.3812 1.95091 17.4075 1.83018 17.4082Z" fill="#6C6C6C" fill-opacity="0.24"/>
<path d="M15.0854 1.93726C15.0233 1.92466 14.9591 1.926 14.8976 1.9412C14.836 1.95639 14.7786 1.98506 14.7294 2.02513C14.6803 2.06519 14.6407 2.11567 14.6134 2.17291C14.5861 2.23015 14.5719 2.29272 14.5717 2.35613V11.9976C14.5713 12.4938 14.4275 12.9793 14.1576 13.3957C13.8878 13.8121 13.5033 14.1417 13.0505 14.3447L3.81243 18.4788C3.75517 18.5043 3.70421 18.5421 3.66316 18.5895C3.62211 18.6369 3.59197 18.6928 3.57486 18.7531C3.55775 18.8134 3.55408 18.8768 3.56413 18.9387C3.57417 19.0006 3.59768 19.0595 3.63299 19.1113C4.33998 20.1511 5.21756 21.064 6.22868 21.8115C8.14437 23.2366 10.4701 24.0029 12.8577 23.9958C19.0009 23.9958 23.9989 18.9978 23.9989 12.8546C23.9989 7.47412 20.1648 2.97211 15.0854 1.93726Z" fill="#6C6C6C" fill-opacity="0.24"/>
</svg>
