<svg width="14" height="11" viewBox="0 0 14 11" fill="none" xmlns="http://www.w3.org/2000/svg">
<path d="M10.6183 6.39837C10.4537 6.53424 10.3781 6.73074 10.4156 6.92345L10.9805 9.58673C11.0282 9.81246 10.9163 10.0409 10.6946 10.1714C10.4772 10.3067 10.1881 10.3229 9.95103 10.2147L7.13643 8.96421C7.03856 8.91982 6.92989 8.89601 6.81868 8.8933H6.64646C6.58673 8.90088 6.52826 8.91712 6.47488 8.94202L3.65964 10.1984C3.52047 10.258 3.36287 10.2791 3.20844 10.258C2.83223 10.1973 2.58121 9.89203 2.64285 9.56995L3.20844 6.90667C3.24594 6.71233 3.17031 6.51475 3.00572 6.37672L0.710952 4.48211C0.519033 4.3235 0.452306 4.08532 0.540004 3.87042C0.62516 3.65606 0.842499 3.49962 1.10496 3.46443L4.26336 3.07414C4.50358 3.05303 4.71456 2.92853 4.8226 2.74448L6.21433 0.313964C6.24737 0.259832 6.28995 0.210031 6.34143 0.167808L6.39862 0.129916C6.42849 0.101768 6.46281 0.078491 6.50094 0.0595449L6.57021 0.0378922L6.67824 0H6.94578C7.18473 0.0211114 7.39508 0.142908 7.50502 0.32479L8.91518 2.74448C9.01686 2.92149 9.2145 3.04437 9.44264 3.07414L12.601 3.46443C12.8679 3.49691 13.091 3.65389 13.1793 3.87042C13.2626 4.08749 13.1908 4.32567 12.995 4.48211L10.6183 6.39837Z" fill="#FEA801"/>
</svg>
