<svg width="30" height="44" viewBox="0 0 30 44" fill="none" xmlns="http://www.w3.org/2000/svg">
<path d="M26.8998 16.92L29.5973 12.2478L25.4645 8.77992L24.5276 3.46692H19.1327L14.9998 -0.000976562L10.867 3.46683H5.47203L4.53518 8.77984L0.402344 12.2477L3.09986 16.9199L2.16301 22.233L4.65779 23.141V43.9989H7.3984L15.02 35.9293L22.665 43.9989H25.3807V23.127L27.8367 22.2331L26.8998 16.92ZM7.24807 40.3856V24.1051L9.93013 28.7505L13.724 27.3697V33.529L7.24807 40.3856ZM22.7903 40.3649L16.3143 33.5292V27.3837L20.0694 28.7505L22.7669 24.0784L22.7903 24.0699V40.3649ZM24.185 16.4414L24.9081 20.5423L20.995 21.9665L18.9129 25.5729L14.9998 24.1486L11.0867 25.5729L9.0046 21.9665L5.09151 20.5423L5.81465 16.4414L3.73252 12.835L6.92255 10.1582L7.64569 6.05719H11.81L15 3.38048L18.19 6.05719H22.3543L23.0774 10.1582L26.2675 12.835L24.185 16.4414Z" fill="#3EC886"/>
<path d="M13.0349 15.2514L11.2343 13.1507L9.26758 14.8365L12.6477 18.78L20.5261 12.8711L18.9719 10.7988L13.0349 15.2514Z" fill="#3EC886"/>
</svg>
