<svg width="27" height="27" viewBox="0 0 27 27" fill="none" xmlns="http://www.w3.org/2000/svg">
<path d="M26.4375 11.8125H15.1875V0.5625C15.1875 0.28125 14.9062 0 14.625 0H12.375C12.0234 0 11.8125 0.28125 11.8125 0.5625V11.8125H0.5625C0.210938 11.8125 0 12.0938 0 12.375V14.625C0 14.9766 0.210938 15.1875 0.5625 15.1875H11.8125V26.4375C11.8125 26.7891 12.0234 27 12.375 27H14.625C14.9062 27 15.1875 26.7891 15.1875 26.4375V15.1875H26.4375C26.7188 15.1875 27 14.9766 27 14.625V12.375C27 12.0938 26.7188 11.8125 26.4375 11.8125Z" fill="#3EC886"/>
</svg>
