<svg width="76" height="67" viewBox="0 0 76 67" fill="none" xmlns="http://www.w3.org/2000/svg">
<path d="M5.53097 24.1533C4.60025 24.1524 3.70687 24.5193 3.04551 25.1742C2.38416 25.8291 2.00843 26.7188 2.00021 27.6495C1.99644 27.9721 2.04316 28.2932 2.13867 28.6014L11.0867 60.1532C11.5015 61.627 12.3878 62.9243 13.61 63.8465C14.8322 64.7686 16.323 65.2647 17.854 65.259H58.1462C59.6802 65.2603 61.1731 64.7631 62.3999 63.8422C63.6268 62.9213 64.5211 61.6266 64.9481 60.1532L73.8962 28.6014L74 27.6495C73.9918 26.7188 73.6161 25.8291 72.9547 25.1742C72.2933 24.5193 71.4 24.1524 70.4692 24.1533H5.53097ZM38.9901 51.8577C37.5516 51.8505 36.1474 51.4173 34.9548 50.6129C33.7621 49.8085 32.8345 48.6688 32.289 47.3377C31.7435 46.0066 31.6045 44.5437 31.8895 43.1337C32.1745 41.7236 32.8709 40.4296 33.8906 39.415C34.9104 38.4003 36.2078 37.7104 37.6192 37.4324C39.0307 37.1544 40.4928 37.3007 41.8212 37.8528C43.1496 38.405 44.2846 39.3382 45.0831 40.5349C45.8816 41.7315 46.3078 43.1378 46.3078 44.5763C46.2986 46.5109 45.5236 48.3632 44.1522 49.7277C42.7808 51.0923 40.9247 51.8581 38.9901 51.8577V51.8577Z" stroke="#3EC886" stroke-width="3" stroke-linejoin="round"/>
<path d="M21.3848 24.1538L38.0001 2L54.6154 24.1538" stroke="#3EC886" stroke-width="3" stroke-linejoin="round"/>
</svg>
