<svg width="64" height="64" viewBox="0 0 64 64" fill="none" xmlns="http://www.w3.org/2000/svg">
<path d="M32.0002 0C14.3552 0 0 14.3552 0 32.0001C0 49.645 14.3552 64 32.0002 64C49.6452 64 64.0001 49.645 64.0003 31.9999C64.0003 14.3552 49.6451 0 32.0002 0ZM32.0002 61.7129C15.6165 61.7129 2.28738 48.3839 2.28738 32.0001C2.28738 15.6163 15.6165 2.28738 32.0002 2.28738C48.3837 2.28738 61.7127 15.6164 61.713 32.0002C61.7129 48.3837 48.3839 61.7129 32.0002 61.7129Z" fill="#2C2C2C"/>
<path d="M25.8138 28.2289C24.3638 25.802 21.8103 24.353 18.983 24.353C16.1558 24.353 13.6023 25.8019 12.1522 28.2289C11.8284 28.7712 12.0052 29.4733 12.5475 29.7973C13.0899 30.1212 13.7921 29.9443 14.1159 29.402C15.149 27.6727 16.9685 26.6403 18.983 26.6403C20.9974 26.6403 22.817 27.6728 23.8501 29.402C24.0643 29.7605 24.4437 29.9594 24.8329 29.9594C25.0324 29.9594 25.2348 29.9073 25.4185 29.7973C25.9608 29.4734 26.1377 28.7712 25.8138 28.2289Z" fill="#2C2C2C"/>
<path d="M51.8489 28.2289C50.3987 25.8018 47.8453 24.353 45.018 24.353C42.1909 24.353 39.6375 25.802 38.1874 28.2289C37.8635 28.7712 38.0404 29.4734 38.5827 29.7973C39.1249 30.1212 39.8272 29.9443 40.151 29.402C41.1842 27.6728 43.0035 26.6403 45.018 26.6403C47.0327 26.6403 48.8522 27.6728 49.8853 29.402C50.0994 29.7605 50.4788 29.9594 50.8681 29.9594C51.0677 29.9594 51.2699 29.9073 51.4537 29.7973C51.9959 29.4733 52.1728 28.7712 51.8489 28.2289Z" fill="#2C2C2C"/>
<path d="M49.1306 38.0733C48.6841 37.6267 47.9601 37.6266 47.5131 38.0733C38.959 46.627 25.0408 46.6269 16.4876 38.0733C16.041 37.6266 15.317 37.6266 14.8701 38.0733C14.4235 38.5199 14.4235 39.2439 14.8701 39.6906C19.5936 44.4139 25.7958 46.7749 32.0004 46.7749C38.2032 46.7749 44.4083 44.4129 49.1306 39.6909C49.5772 39.2441 49.5772 38.5199 49.1306 38.0733Z" fill="#2C2C2C"/>
<path d="M38.274 49.0472C38.1035 48.4391 37.4726 48.0842 36.864 48.2547C33.682 49.147 30.3181 49.1468 27.1363 48.2547C26.5277 48.0841 25.8968 48.4391 25.7263 49.0472C25.5558 49.6553 25.9107 50.2867 26.5188 50.4572C28.3118 50.96 30.1555 51.2113 32 51.2113C33.8437 51.2113 35.6885 50.9598 37.4814 50.4572C38.0896 50.2867 38.4445 49.6556 38.274 49.0472Z" fill="#2C2C2C"/>
</svg>
