<svg width="19" height="17" viewBox="0 0 19 17" fill="none" xmlns="http://www.w3.org/2000/svg">
<path d="M17.2422 1.46484C15.3086 -0.152344 12.4609 0.09375 10.668 1.95703L10 2.66016L9.29688 1.95703C7.85547 0.480469 4.97266 -0.433594 2.72266 1.46484C0.507812 3.36328 0.402344 6.73828 2.37109 8.77734L9.19141 15.8086C9.40234 16.0195 9.68359 16.125 9.96484 16.125C10.2812 16.125 10.5625 16.0195 10.7734 15.8086L17.5938 8.77734C19.5625 6.73828 19.457 3.36328 17.2422 1.46484ZM16.7852 8.00391L10 15.0352L3.17969 8.00391C1.84375 6.59766 1.5625 3.96094 3.46094 2.34375C5.39453 0.691406 7.64453 1.88672 8.48828 2.73047L10 4.27734L11.4766 2.73047C12.2852 1.88672 14.5703 0.691406 16.5039 2.34375C18.4023 3.96094 18.1211 6.59766 16.7852 8.00391Z" fill="#575757"/>
</svg>
