<svg width="20" height="20" viewBox="0 0 20 20" fill="none" xmlns="http://www.w3.org/2000/svg">
<path d="M14.1665 1.66652C15.2707 1.66982 16.3286 2.10989 17.1094 2.89064C17.8901 3.67138 18.3302 4.72935 18.3335 5.83348V14.1665C18.3302 15.2707 17.8901 16.3286 17.1094 17.1094C16.3286 17.8901 15.2707 18.3302 14.1665 18.3335H5.83348C4.72935 18.3302 3.67138 17.8901 2.89064 17.1094C2.10989 16.3286 1.66982 15.2707 1.66652 14.1665V5.83348C1.66982 4.72935 2.10989 3.67138 2.89064 2.89064C3.67138 2.10989 4.72935 1.66982 5.83348 1.66652H14.1665V1.66652ZM14.1665 0H5.83348C2.625 0 0 2.625 0 5.83348V14.1665C0 17.375 2.625 20 5.83348 20H14.1665C17.375 20 20 17.375 20 14.1665V5.83348C20 2.625 17.375 0 14.1665 0V0Z" fill="#C4C4C4"/>
<path d="M15.4165 5.83361C15.1693 5.83361 14.9276 5.76029 14.7221 5.62294C14.5165 5.48559 14.3563 5.29037 14.2617 5.06196C14.1671 4.83355 14.1423 4.58222 14.1905 4.33974C14.2388 4.09727 14.3578 3.87454 14.5326 3.69972C14.7075 3.52491 14.9302 3.40586 15.1727 3.35762C15.4151 3.30939 15.6665 3.33415 15.8949 3.42876C16.1233 3.52337 16.3185 3.68358 16.4559 3.88914C16.5932 4.0947 16.6665 4.33638 16.6665 4.58361C16.6669 4.74786 16.6348 4.91056 16.5721 5.06238C16.5094 5.21419 16.4173 5.35213 16.3012 5.46828C16.185 5.58442 16.0471 5.67648 15.8953 5.73917C15.7435 5.80187 15.5808 5.83396 15.4165 5.83361V5.83361ZM10 6.66664C10.6593 6.66664 11.3038 6.86215 11.852 7.22843C12.4002 7.59472 12.8274 8.11534 13.0797 8.72445C13.332 9.33357 13.3981 10.0038 13.2694 10.6505C13.1408 11.2971 12.8233 11.8911 12.3571 12.3572C11.8909 12.8234 11.297 13.1409 10.6503 13.2696C10.0037 13.3982 9.33345 13.3322 8.72433 13.0799C8.11522 12.8276 7.5946 12.4003 7.22831 11.8521C6.86203 11.3039 6.66652 10.6594 6.66652 10.0001C6.66747 9.11632 7.01897 8.26898 7.64392 7.64404C8.26886 7.01909 9.1162 6.66759 10 6.66664V6.66664ZM10 5.00012C9.0111 5.00012 8.0444 5.29337 7.22215 5.84277C6.39991 6.39218 5.75904 7.17307 5.3806 8.08671C5.00217 9.00034 4.90315 10.0057 5.09608 10.9756C5.289 11.9455 5.76521 12.8364 6.46447 13.5357C7.16373 14.2349 8.05465 14.7111 9.02455 14.904C9.99446 15.097 10.9998 14.998 11.9134 14.6195C12.827 14.2411 13.6079 13.6002 14.1574 12.778C14.7068 11.9557 15 10.989 15 10.0001C15 8.67404 14.4732 7.40227 13.5355 6.46459C12.5979 5.52691 11.3261 5.00012 10 5.00012V5.00012Z" fill="#C4C4C4"/>
</svg>
