<svg width="16" height="19" viewBox="0 0 16 19" fill="none" xmlns="http://www.w3.org/2000/svg">
<path d="M14.3125 8.6875H4.75V5.38281C4.75 3.51953 6.22656 1.97266 8.08984 1.9375C9.95312 1.9375 11.5 3.44922 11.5 5.3125V6.15625C11.5 6.64844 11.8516 7 12.3438 7C12.8008 7 13.1875 6.64844 13.1875 6.15625V5.38281C13.1875 2.57031 10.9375 0.285156 8.125 0.25C5.3125 0.25 3.0625 2.53516 3.0625 5.3125V8.6875H1.9375C0.988281 8.6875 0.25 9.46094 0.25 10.375V16.5625C0.25 17.5117 0.988281 18.25 1.9375 18.25H14.3125C15.2266 18.25 16 17.5117 16 16.5625V10.375C16 9.46094 15.2266 8.6875 14.3125 8.6875ZM14.3125 16.5625H1.9375V10.375H14.3125V16.5625Z" fill="white"/>
</svg>
