<svg width="18" height="24" viewBox="0 0 18 24" fill="none" xmlns="http://www.w3.org/2000/svg">
<path d="M17 8.8H13.6V4.8C13.6 3.52696 13.0943 2.30606 12.1941 1.40589C11.2939 0.505713 10.073 0 8.8 0C7.52696 0 6.30606 0.505713 5.40589 1.40589C4.50571 2.30606 4 3.52696 4 4.8V8.8H0.6C0.44087 8.8 0.288258 8.86321 0.175736 8.97574C0.063214 9.08826 0 9.24087 0 9.4V23.4C0 23.5591 0.063214 23.7117 0.175736 23.8243C0.288258 23.9368 0.44087 24 0.6 24H17C17.1591 24 17.3117 23.9368 17.4243 23.8243C17.5368 23.7117 17.6 23.5591 17.6 23.4V9.4C17.6 9.24087 17.5368 9.08826 17.4243 8.97574C17.3117 8.86321 17.1591 8.8 17 8.8ZM11.7 8.8H5.9V4.7625C5.9 3.99337 6.20553 3.25575 6.74939 2.71189C7.29325 2.16804 8.03087 1.8625 8.8 1.8625C9.56913 1.8625 10.3068 2.16804 10.8506 2.71189C11.3945 3.25575 11.7 3.99337 11.7 4.7625V8.8Z" fill="#C4C4C4"/>
</svg>
