<svg width="20" height="17" viewBox="0 0 20 17" fill="none" xmlns="http://www.w3.org/2000/svg">
<path d="M6.25 8.5H18.25M12.25 12.25V14.125C12.25 14.6223 12.0525 15.0992 11.7008 15.4508C11.3492 15.8025 10.8723 16 10.375 16H2.875C2.37772 16 1.90081 15.8025 1.54917 15.4508C1.19754 15.0992 1 14.6223 1 14.125V2.875C1 2.37772 1.19754 1.90081 1.54917 1.54917C1.90081 1.19754 2.37772 1 2.875 1H10C11.0355 1 12.25 1.83953 12.25 2.875V4.75V12.25ZM15.25 12.25L19 8.5L15.25 4.75V12.25Z" stroke="#D0D0D0" stroke-linecap="round" stroke-linejoin="round"/>
</svg>
