<svg width="44" height="31" viewBox="0 0 44 31" fill="none" xmlns="http://www.w3.org/2000/svg">
<path d="M21.8223 18.5548C23.517 18.5548 24.8908 17.1811 24.8908 15.4864C24.8908 13.7918 23.517 12.418 21.8223 12.418C20.1277 12.418 18.7539 13.7918 18.7539 15.4864C18.7539 17.1811 20.1277 18.5548 21.8223 18.5548Z" fill="#3EC886"/>
<path d="M16.2157 22.7981C15.9507 22.7983 15.6886 22.7424 15.4468 22.634C15.205 22.5255 14.9889 22.3671 14.8128 22.169C13.177 20.3281 12.2734 17.951 12.2734 15.4884C12.2734 13.0257 13.177 10.6486 14.8128 8.80769C14.975 8.6188 15.1732 8.46412 15.3959 8.35266C15.6185 8.2412 15.8612 8.1752 16.1096 8.15851C16.358 8.14183 16.6073 8.17478 16.8429 8.25546C17.0784 8.33614 17.2956 8.46292 17.4816 8.62841C17.6676 8.79391 17.8188 8.99479 17.9264 9.21935C18.034 9.44391 18.0958 9.68764 18.1081 9.93633C18.1205 10.185 18.0832 10.4337 17.9984 10.6678C17.9137 10.9019 17.7831 11.1168 17.6144 11.2999C16.589 12.4543 16.0226 13.9447 16.0226 15.4888C16.0226 17.0328 16.589 18.5233 17.6144 19.6776C17.8544 19.9478 18.0112 20.2815 18.0659 20.6386C18.1207 20.9957 18.0712 21.361 17.9232 21.6907C17.7753 22.0203 17.5353 22.3002 17.2321 22.4966C16.9289 22.6931 16.5753 22.7978 16.214 22.7981H16.2157ZM27.4258 22.7981C27.0645 22.7978 26.7109 22.6931 26.4077 22.4966C26.1045 22.3002 25.8645 22.0203 25.7166 21.6907C25.5686 21.361 25.5191 20.9957 25.5739 20.6386C25.6286 20.2815 25.7854 19.9478 26.0254 19.6776C27.0508 18.5233 27.6172 17.0328 27.6172 15.4888C27.6172 13.9447 27.0508 12.4543 26.0254 11.2999C25.8567 11.1168 25.7261 10.9019 25.6414 10.6678C25.5566 10.4337 25.5193 10.185 25.5317 9.93633C25.544 9.68764 25.6058 9.44391 25.7134 9.21935C25.8209 8.99479 25.9722 8.79391 26.1582 8.62841C26.3442 8.46292 26.5614 8.33614 26.7969 8.25546C27.0325 8.17478 27.2818 8.14183 27.5302 8.15851C27.7786 8.1752 28.0213 8.2412 28.2439 8.35266C28.4666 8.46412 28.6648 8.6188 28.827 8.80769C30.4628 10.6486 31.3664 13.0257 31.3664 15.4884C31.3664 17.951 30.4628 20.3281 28.827 22.169C28.6511 22.3669 28.4353 22.5252 28.1938 22.6336C27.9522 22.742 27.6905 22.7981 27.4258 22.7981Z" fill="#3EC886"/>
<path d="M11.875 27.142C11.6177 27.1422 11.3632 27.0893 11.1274 26.9867C10.8916 26.884 10.6795 26.7338 10.5044 26.5453C7.70041 23.5456 6.14062 19.5927 6.14063 15.4866C6.14062 11.3804 7.70041 7.42757 10.5044 4.42785C10.6722 4.24645 10.8742 4.10002 11.0989 3.99698C11.3235 3.89393 11.5662 3.8363 11.8132 3.82739C12.0602 3.81848 12.3065 3.85848 12.5379 3.94508C12.7694 4.03169 12.9814 4.16318 13.1619 4.33202C13.3423 4.50085 13.4876 4.70369 13.5894 4.92887C13.6912 5.15405 13.7475 5.39713 13.7551 5.64414C13.7626 5.89115 13.7212 6.13722 13.6333 6.36818C13.5455 6.59915 13.4128 6.81047 13.243 6.98999C11.0888 9.29496 9.89046 12.3321 9.89046 15.487C9.89046 18.6419 11.0888 21.6791 13.243 23.984C13.4918 24.251 13.6574 24.5849 13.7193 24.9446C13.7811 25.3044 13.7367 25.6743 13.5914 26.0092C13.446 26.344 13.2061 26.6291 12.9011 26.8296C12.596 27.0301 12.2391 27.1371 11.8741 27.1377L11.875 27.142ZM31.7704 27.142C31.4053 27.1414 31.0484 27.0343 30.7434 26.8339C30.4383 26.6334 30.1984 26.3483 30.0531 26.0134C29.9078 25.6786 29.8633 25.3086 29.9252 24.9489C29.9871 24.5892 30.1526 24.2553 30.4015 23.9883C32.5557 21.6833 33.754 18.6462 33.754 15.4913C33.754 12.3364 32.5557 9.29922 30.4015 6.99425C30.2317 6.81473 30.099 6.60342 30.0111 6.37245C29.9232 6.14148 29.8819 5.89541 29.8894 5.6484C29.8969 5.4014 29.9532 5.15831 30.055 4.93313C30.1568 4.70795 30.3021 4.50511 30.4826 4.33628C30.6631 4.16745 30.8751 4.03595 31.1066 3.94935C31.338 3.86274 31.5843 3.82275 31.8313 3.83165C32.0782 3.84056 32.321 3.89819 32.5456 4.00124C32.7702 4.10429 32.9723 4.25072 33.1401 4.43211C35.944 7.43183 37.5038 11.3847 37.5038 15.4908C37.5038 19.597 35.944 23.5499 33.1401 26.5496C32.9647 26.7371 32.7526 26.8865 32.5169 26.9885C32.2813 27.0904 32.0271 27.1426 31.7704 27.142Z" fill="#3EC886"/>
<path d="M36.5667 31C36.2048 30.9999 35.8505 30.8951 35.5468 30.6981C35.2431 30.5011 35.0029 30.2205 34.8552 29.89C34.7075 29.5595 34.6586 29.1934 34.7144 28.8357C34.7702 28.4781 34.9284 28.1442 35.1697 27.8745C38.2107 24.4649 39.8912 20.0559 39.8912 15.4873C39.8912 10.9187 38.2107 6.50975 35.1697 3.10022C34.8487 2.72816 34.6865 2.24493 34.7181 1.75451C34.7497 1.2641 34.9726 0.80569 35.3388 0.477938C35.705 0.150185 36.1852 -0.0207166 36.6761 0.00200773C37.167 0.0247321 37.6294 0.239266 37.9637 0.599446C41.62 4.69664 43.6407 9.99598 43.6407 15.4873C43.6407 20.9787 41.62 26.278 37.9637 30.3752C37.7879 30.5717 37.5726 30.729 37.3319 30.8366C37.0911 30.9443 36.8304 30.9999 36.5667 31ZM7.07563 31C6.8116 31.0005 6.55045 30.9451 6.30937 30.8374C6.0683 30.7297 5.85275 30.5722 5.67693 30.3752C2.02071 26.278 0 20.9787 0 15.4873C0 9.99598 2.02071 4.69664 5.67693 0.599446C6.01127 0.239266 6.47364 0.0247321 6.96455 0.00200773C7.45546 -0.0207166 7.93567 0.150185 8.30185 0.477938C8.66803 0.80569 8.89091 1.2641 8.92253 1.75451C8.95415 2.24493 8.79198 2.72816 8.47092 3.10022C5.43 6.50975 3.74948 10.9187 3.74948 15.4873C3.74948 20.0559 5.43 24.4649 8.47092 27.8745C8.7122 28.1441 8.87031 28.4778 8.92618 28.8353C8.98205 29.1928 8.9333 29.5588 8.7858 29.8892C8.6383 30.2196 8.39835 30.5003 8.09491 30.6974C7.79146 30.8945 7.43747 30.9996 7.07563 31Z" fill="#3EC886"/>
</svg>
