<svg width="178" height="31" viewBox="0 0 178 31" fill="none" xmlns="http://www.w3.org/2000/svg">
<path d="M56.8042 7.816H62.6122C63.9722 7.816 65.1962 8.024 66.2842 8.44C67.3722 8.856 68.3002 9.448 69.0682 10.216C69.8362 10.968 70.4202 11.872 70.8202 12.928C71.2362 13.984 71.4442 15.144 71.4442 16.408C71.4442 17.688 71.2362 18.856 70.8202 19.912C70.4202 20.968 69.8362 21.872 69.0682 22.624C68.3002 23.376 67.3722 23.96 66.2842 24.376C65.1962 24.792 63.9722 25 62.6122 25H56.8042V7.816ZM62.4682 21.928C63.4122 21.928 64.2442 21.8 64.9642 21.544C65.6842 21.272 66.2842 20.896 66.7642 20.416C67.2442 19.936 67.6042 19.36 67.8442 18.688C68.0842 18 68.2042 17.24 68.2042 16.408C68.2042 15.576 68.0842 14.824 67.8442 14.152C67.6042 13.464 67.2442 12.88 66.7642 12.4C66.2842 11.92 65.6842 11.552 64.9642 11.296C64.2442 11.024 63.4122 10.888 62.4682 10.888H60.0442V21.928H62.4682ZM84.4546 22.168C83.9106 23.128 83.1746 23.904 82.2466 24.496C81.3346 25.088 80.2146 25.384 78.8866 25.384C77.9906 25.384 77.1586 25.232 76.3906 24.928C75.6386 24.608 74.9826 24.168 74.4226 23.608C73.8626 23.048 73.4226 22.392 73.1026 21.64C72.7986 20.872 72.6466 20.032 72.6466 19.12C72.6466 18.272 72.7986 17.472 73.1026 16.72C73.4066 15.952 73.8306 15.288 74.3746 14.728C74.9186 14.152 75.5586 13.696 76.2946 13.36C77.0466 13.024 77.8706 12.856 78.7666 12.856C79.7106 12.856 80.5506 13.016 81.2866 13.336C82.0226 13.64 82.6386 14.072 83.1346 14.632C83.6306 15.176 84.0066 15.824 84.2626 16.576C84.5186 17.328 84.6466 18.144 84.6466 19.024C84.6466 19.136 84.6466 19.232 84.6466 19.312C84.6306 19.408 84.6226 19.496 84.6226 19.576C84.6066 19.656 84.5986 19.744 84.5986 19.84H75.7426C75.8066 20.32 75.9346 20.736 76.1266 21.088C76.3346 21.424 76.5826 21.712 76.8706 21.952C77.1746 22.176 77.5026 22.344 77.8546 22.456C78.2066 22.552 78.5666 22.6 78.9346 22.6C79.6546 22.6 80.2466 22.44 80.7106 22.12C81.1906 21.784 81.5666 21.368 81.8386 20.872L84.4546 22.168ZM81.5986 17.608C81.5826 17.4 81.5106 17.168 81.3826 16.912C81.2706 16.656 81.0946 16.416 80.8546 16.192C80.6306 15.968 80.3426 15.784 79.9906 15.64C79.6546 15.496 79.2466 15.424 78.7666 15.424C78.0946 15.424 77.5026 15.616 76.9906 16C76.4786 16.384 76.1186 16.92 75.9106 17.608H81.5986ZM86.6545 25V7.816H89.7985V25H86.6545ZM97.0293 25.384C96.2613 25.384 95.5733 25.288 94.9653 25.096C94.3733 24.904 93.8533 24.656 93.4053 24.352C92.9733 24.032 92.6053 23.672 92.3013 23.272C91.9973 22.856 91.7653 22.44 91.6053 22.024L94.4133 20.824C94.6853 21.432 95.0453 21.888 95.4933 22.192C95.9573 22.48 96.4693 22.624 97.0293 22.624C97.6053 22.624 98.0613 22.52 98.3973 22.312C98.7333 22.104 98.9013 21.856 98.9013 21.568C98.9013 21.248 98.7573 20.992 98.4693 20.8C98.1973 20.592 97.7173 20.408 97.0293 20.248L95.3733 19.888C95.0053 19.808 94.6213 19.68 94.2213 19.504C93.8373 19.328 93.4853 19.104 93.1653 18.832C92.8453 18.56 92.5813 18.232 92.3733 17.848C92.1653 17.464 92.0613 17.016 92.0613 16.504C92.0613 15.928 92.1813 15.416 92.4213 14.968C92.6773 14.52 93.0213 14.144 93.4533 13.84C93.8853 13.52 94.3893 13.28 94.9653 13.12C95.5573 12.944 96.1893 12.856 96.8613 12.856C97.9813 12.856 98.9813 13.08 99.8613 13.528C100.741 13.96 101.389 14.656 101.805 15.616L99.0933 16.72C98.8693 16.256 98.5413 15.92 98.1093 15.712C97.6773 15.504 97.2453 15.4 96.8133 15.4C96.3653 15.4 95.9733 15.496 95.6373 15.688C95.3013 15.864 95.1333 16.096 95.1333 16.384C95.1333 16.656 95.2693 16.872 95.5413 17.032C95.8293 17.192 96.2133 17.336 96.6933 17.464L98.4933 17.896C99.6933 18.184 100.581 18.648 101.157 19.288C101.749 19.912 102.045 20.656 102.045 21.52C102.045 22.032 101.925 22.52 101.685 22.984C101.445 23.448 101.101 23.864 100.653 24.232C100.221 24.584 99.6933 24.864 99.0693 25.072C98.4613 25.28 97.7813 25.384 97.0293 25.384ZM109.66 12.856C110.572 12.856 111.404 13.016 112.156 13.336C112.924 13.64 113.58 14.072 114.124 14.632C114.684 15.176 115.116 15.832 115.42 16.6C115.74 17.368 115.9 18.208 115.9 19.12C115.9 20.032 115.74 20.872 115.42 21.64C115.116 22.408 114.684 23.072 114.124 23.632C113.58 24.176 112.924 24.608 112.156 24.928C111.404 25.232 110.572 25.384 109.66 25.384C108.748 25.384 107.908 25.232 107.14 24.928C106.388 24.608 105.732 24.176 105.172 23.632C104.628 23.072 104.196 22.408 103.876 21.64C103.572 20.872 103.42 20.032 103.42 19.12C103.42 18.208 103.572 17.368 103.876 16.6C104.196 15.832 104.628 15.176 105.172 14.632C105.732 14.072 106.388 13.64 107.14 13.336C107.908 13.016 108.748 12.856 109.66 12.856ZM109.66 22.48C110.06 22.48 110.444 22.408 110.812 22.264C111.196 22.104 111.532 21.88 111.82 21.592C112.108 21.304 112.332 20.952 112.492 20.536C112.668 20.12 112.756 19.648 112.756 19.12C112.756 18.592 112.668 18.12 112.492 17.704C112.332 17.288 112.108 16.936 111.82 16.648C111.532 16.36 111.196 16.144 110.812 16C110.444 15.84 110.06 15.76 109.66 15.76C109.244 15.76 108.852 15.84 108.484 16C108.116 16.144 107.788 16.36 107.5 16.648C107.212 16.936 106.98 17.288 106.804 17.704C106.644 18.12 106.564 18.592 106.564 19.12C106.564 19.648 106.644 20.12 106.804 20.536C106.98 20.952 107.212 21.304 107.5 21.592C107.788 21.88 108.116 22.104 108.484 22.264C108.852 22.408 109.244 22.48 109.66 22.48ZM118.304 25V7.816H124.352C125.168 7.816 125.928 7.952 126.632 8.224C127.352 8.48 127.976 8.848 128.504 9.328C129.032 9.808 129.448 10.384 129.752 11.056C130.056 11.712 130.208 12.44 130.208 13.24C130.208 14.056 130.056 14.8 129.752 15.472C129.448 16.128 129.032 16.696 128.504 17.176C127.976 17.656 127.352 18.032 126.632 18.304C125.928 18.56 125.168 18.688 124.352 18.688H121.544V25H118.304ZM124.4 15.616C125.248 15.616 125.888 15.376 126.32 14.896C126.752 14.416 126.968 13.864 126.968 13.24C126.968 12.936 126.912 12.64 126.8 12.352C126.704 12.064 126.544 11.816 126.32 11.608C126.112 11.384 125.848 11.208 125.528 11.08C125.208 10.952 124.832 10.888 124.4 10.888H121.544V15.616H124.4ZM133.875 11.536C133.603 11.536 133.339 11.488 133.083 11.392C132.843 11.28 132.627 11.136 132.435 10.96C132.259 10.768 132.115 10.552 132.003 10.312C131.907 10.072 131.859 9.808 131.859 9.52C131.859 9.232 131.907 8.968 132.003 8.728C132.115 8.488 132.259 8.28 132.435 8.104C132.627 7.912 132.843 7.768 133.083 7.672C133.339 7.56 133.603 7.504 133.875 7.504C134.435 7.504 134.915 7.704 135.315 8.104C135.715 8.488 135.915 8.96 135.915 9.52C135.915 10.08 135.715 10.56 135.315 10.96C134.915 11.344 134.435 11.536 133.875 11.536ZM132.315 25V13.24H135.459V25H132.315ZM145.465 23.752H145.273C144.905 24.2 144.457 24.584 143.929 24.904C143.417 25.224 142.753 25.384 141.937 25.384C141.329 25.384 140.753 25.28 140.209 25.072C139.681 24.88 139.217 24.608 138.817 24.256C138.417 23.904 138.105 23.48 137.881 22.984C137.657 22.488 137.545 21.944 137.545 21.352C137.545 20.744 137.665 20.2 137.905 19.72C138.145 19.224 138.481 18.8 138.913 18.448C139.345 18.096 139.849 17.832 140.425 17.656C141.017 17.464 141.657 17.368 142.345 17.368C143.113 17.368 143.745 17.432 144.241 17.56C144.737 17.672 145.145 17.792 145.465 17.92V17.56C145.465 16.936 145.217 16.424 144.721 16.024C144.225 15.608 143.609 15.4 142.873 15.4C141.785 15.4 140.865 15.856 140.113 16.768L137.833 15.208C139.081 13.64 140.785 12.856 142.945 12.856C144.769 12.856 146.161 13.288 147.121 14.152C148.081 15 148.561 16.264 148.561 17.944V25H145.465V23.752ZM145.465 20.224C145.097 20.048 144.713 19.912 144.313 19.816C143.929 19.704 143.505 19.648 143.041 19.648C142.289 19.648 141.705 19.816 141.289 20.152C140.889 20.472 140.689 20.872 140.689 21.352C140.689 21.832 140.881 22.216 141.265 22.504C141.665 22.792 142.121 22.936 142.633 22.936C143.049 22.936 143.433 22.864 143.785 22.72C144.137 22.56 144.433 22.36 144.673 22.12C144.929 21.864 145.121 21.576 145.249 21.256C145.393 20.92 145.465 20.576 145.465 20.224ZM154.013 14.776H154.205C154.573 14.184 155.069 13.72 155.693 13.384C156.317 13.032 157.029 12.856 157.829 12.856C158.565 12.856 159.213 12.976 159.773 13.216C160.333 13.456 160.789 13.8 161.141 14.248C161.509 14.68 161.781 15.208 161.957 15.832C162.149 16.44 162.245 17.12 162.245 17.872V25H159.101V18.256C159.101 17.408 158.909 16.784 158.525 16.384C158.157 15.968 157.613 15.76 156.893 15.76C156.461 15.76 156.077 15.856 155.741 16.048C155.421 16.224 155.141 16.472 154.901 16.792C154.677 17.096 154.501 17.464 154.373 17.896C154.261 18.312 154.205 18.76 154.205 19.24V25H151.061V13.24H154.013V14.776ZM170.41 12.856C171.322 12.856 172.154 13.016 172.906 13.336C173.674 13.64 174.33 14.072 174.874 14.632C175.434 15.176 175.866 15.832 176.17 16.6C176.49 17.368 176.65 18.208 176.65 19.12C176.65 20.032 176.49 20.872 176.17 21.64C175.866 22.408 175.434 23.072 174.874 23.632C174.33 24.176 173.674 24.608 172.906 24.928C172.154 25.232 171.322 25.384 170.41 25.384C169.498 25.384 168.658 25.232 167.89 24.928C167.138 24.608 166.482 24.176 165.922 23.632C165.378 23.072 164.946 22.408 164.626 21.64C164.322 20.872 164.17 20.032 164.17 19.12C164.17 18.208 164.322 17.368 164.626 16.6C164.946 15.832 165.378 15.176 165.922 14.632C166.482 14.072 167.138 13.64 167.89 13.336C168.658 13.016 169.498 12.856 170.41 12.856ZM170.41 22.48C170.81 22.48 171.194 22.408 171.562 22.264C171.946 22.104 172.282 21.88 172.57 21.592C172.858 21.304 173.082 20.952 173.242 20.536C173.418 20.12 173.506 19.648 173.506 19.12C173.506 18.592 173.418 18.12 173.242 17.704C173.082 17.288 172.858 16.936 172.57 16.648C172.282 16.36 171.946 16.144 171.562 16C171.194 15.84 170.81 15.76 170.41 15.76C169.994 15.76 169.602 15.84 169.234 16C168.866 16.144 168.538 16.36 168.25 16.648C167.962 16.936 167.73 17.288 167.554 17.704C167.394 18.12 167.314 18.592 167.314 19.12C167.314 19.648 167.394 20.12 167.554 20.536C167.73 20.952 167.962 21.304 168.25 21.592C168.538 21.88 168.866 22.104 169.234 22.264C169.602 22.408 169.994 22.48 170.41 22.48Z" fill="#646464"/>
<path d="M21.8223 18.5548C23.517 18.5548 24.8908 17.1811 24.8908 15.4864C24.8908 13.7918 23.517 12.418 21.8223 12.418C20.1277 12.418 18.7539 13.7918 18.7539 15.4864C18.7539 17.1811 20.1277 18.5548 21.8223 18.5548Z" fill="#3EC886"/>
<path d="M16.2157 22.7981C15.9507 22.7983 15.6886 22.7424 15.4468 22.634C15.205 22.5255 14.9889 22.3671 14.8128 22.169C13.177 20.3281 12.2734 17.951 12.2734 15.4884C12.2734 13.0257 13.177 10.6486 14.8128 8.80769C14.975 8.6188 15.1732 8.46412 15.3959 8.35266C15.6185 8.2412 15.8612 8.1752 16.1096 8.15851C16.358 8.14183 16.6073 8.17478 16.8429 8.25546C17.0784 8.33614 17.2956 8.46292 17.4816 8.62841C17.6676 8.79391 17.8188 8.99479 17.9264 9.21935C18.034 9.44391 18.0958 9.68764 18.1081 9.93633C18.1205 10.185 18.0832 10.4337 17.9984 10.6678C17.9137 10.9019 17.7831 11.1168 17.6144 11.2999C16.589 12.4543 16.0226 13.9447 16.0226 15.4888C16.0226 17.0328 16.589 18.5233 17.6144 19.6776C17.8544 19.9478 18.0112 20.2815 18.0659 20.6386C18.1207 20.9957 18.0712 21.361 17.9232 21.6907C17.7753 22.0203 17.5353 22.3002 17.2321 22.4966C16.9289 22.6931 16.5753 22.7978 16.214 22.7981H16.2157ZM27.4258 22.7981C27.0645 22.7978 26.7109 22.6931 26.4077 22.4966C26.1045 22.3002 25.8645 22.0203 25.7166 21.6907C25.5686 21.361 25.5191 20.9957 25.5739 20.6386C25.6286 20.2815 25.7854 19.9478 26.0254 19.6776C27.0508 18.5233 27.6172 17.0328 27.6172 15.4888C27.6172 13.9447 27.0508 12.4543 26.0254 11.2999C25.8567 11.1168 25.7261 10.9019 25.6414 10.6678C25.5566 10.4337 25.5193 10.185 25.5317 9.93633C25.544 9.68764 25.6058 9.44391 25.7134 9.21935C25.8209 8.99479 25.9722 8.79391 26.1582 8.62841C26.3442 8.46292 26.5614 8.33614 26.7969 8.25546C27.0325 8.17478 27.2818 8.14183 27.5302 8.15851C27.7786 8.1752 28.0213 8.2412 28.2439 8.35266C28.4666 8.46412 28.6648 8.6188 28.827 8.80769C30.4628 10.6486 31.3664 13.0257 31.3664 15.4884C31.3664 17.951 30.4628 20.3281 28.827 22.169C28.6511 22.3669 28.4353 22.5252 28.1938 22.6336C27.9522 22.742 27.6905 22.7981 27.4258 22.7981Z" fill="#3EC886"/>
<path d="M11.875 27.142C11.6177 27.1422 11.3632 27.0893 11.1274 26.9867C10.8916 26.884 10.6795 26.7338 10.5044 26.5453C7.70041 23.5456 6.14062 19.5927 6.14063 15.4866C6.14062 11.3804 7.70041 7.42757 10.5044 4.42785C10.6722 4.24645 10.8742 4.10002 11.0989 3.99698C11.3235 3.89393 11.5662 3.8363 11.8132 3.82739C12.0602 3.81848 12.3065 3.85848 12.5379 3.94508C12.7694 4.03169 12.9814 4.16318 13.1619 4.33202C13.3423 4.50085 13.4876 4.70369 13.5894 4.92887C13.6912 5.15405 13.7475 5.39713 13.7551 5.64414C13.7626 5.89115 13.7212 6.13722 13.6333 6.36818C13.5455 6.59915 13.4128 6.81047 13.243 6.98999C11.0888 9.29496 9.89046 12.3321 9.89046 15.487C9.89046 18.6419 11.0888 21.6791 13.243 23.984C13.4918 24.251 13.6574 24.5849 13.7193 24.9446C13.7811 25.3044 13.7367 25.6743 13.5914 26.0092C13.446 26.344 13.2061 26.6291 12.9011 26.8296C12.596 27.0301 12.2391 27.1371 11.8741 27.1377L11.875 27.142ZM31.7704 27.142C31.4053 27.1414 31.0484 27.0343 30.7434 26.8339C30.4383 26.6334 30.1984 26.3483 30.0531 26.0134C29.9078 25.6786 29.8633 25.3086 29.9252 24.9489C29.9871 24.5892 30.1526 24.2553 30.4015 23.9883C32.5557 21.6833 33.754 18.6462 33.754 15.4913C33.754 12.3364 32.5557 9.29922 30.4015 6.99425C30.2317 6.81473 30.099 6.60342 30.0111 6.37245C29.9232 6.14148 29.8819 5.89541 29.8894 5.6484C29.8969 5.4014 29.9532 5.15831 30.055 4.93313C30.1568 4.70795 30.3021 4.50511 30.4826 4.33628C30.6631 4.16745 30.8751 4.03595 31.1066 3.94935C31.338 3.86274 31.5843 3.82275 31.8313 3.83165C32.0782 3.84056 32.321 3.89819 32.5456 4.00124C32.7702 4.10429 32.9723 4.25072 33.1401 4.43211C35.944 7.43183 37.5038 11.3847 37.5038 15.4908C37.5038 19.597 35.944 23.5499 33.1401 26.5496C32.9647 26.7371 32.7526 26.8865 32.5169 26.9885C32.2813 27.0904 32.0271 27.1426 31.7704 27.142Z" fill="#3EC886"/>
<path d="M36.5667 31C36.2048 30.9999 35.8505 30.8951 35.5468 30.6981C35.2431 30.5011 35.0029 30.2205 34.8552 29.89C34.7075 29.5595 34.6586 29.1934 34.7144 28.8357C34.7702 28.4781 34.9284 28.1442 35.1697 27.8745C38.2107 24.4649 39.8912 20.0559 39.8912 15.4873C39.8912 10.9187 38.2107 6.50975 35.1697 3.10022C34.8487 2.72816 34.6865 2.24493 34.7181 1.75451C34.7497 1.2641 34.9726 0.80569 35.3388 0.477938C35.705 0.150185 36.1852 -0.0207166 36.6761 0.00200773C37.167 0.0247321 37.6294 0.239266 37.9637 0.599446C41.62 4.69664 43.6407 9.99598 43.6407 15.4873C43.6407 20.9787 41.62 26.278 37.9637 30.3752C37.7879 30.5717 37.5726 30.729 37.3319 30.8366C37.0911 30.9443 36.8304 30.9999 36.5667 31ZM7.07563 31C6.8116 31.0005 6.55045 30.9451 6.30937 30.8374C6.0683 30.7297 5.85275 30.5722 5.67693 30.3752C2.02071 26.278 0 20.9787 0 15.4873C0 9.99598 2.02071 4.69664 5.67693 0.599446C6.01127 0.239266 6.47364 0.0247321 6.96455 0.00200773C7.45546 -0.0207166 7.93567 0.150185 8.30185 0.477938C8.66803 0.80569 8.89091 1.2641 8.92253 1.75451C8.95415 2.24493 8.79198 2.72816 8.47092 3.10022C5.43 6.50975 3.74948 10.9187 3.74948 15.4873C3.74948 20.0559 5.43 24.4649 8.47092 27.8745C8.7122 28.1441 8.87031 28.4778 8.92618 28.8353C8.98205 29.1928 8.9333 29.5588 8.7858 29.8892C8.6383 30.2196 8.39835 30.5003 8.09491 30.6974C7.79146 30.8945 7.43747 30.9996 7.07563 31Z" fill="#3EC886"/>
</svg>
