<svg width="26" height="26" viewBox="0 0 26 26" fill="none" xmlns="http://www.w3.org/2000/svg">
<path d="M25.3843 22.2385L19.4067 16.2604C20.4223 14.6435 21.0118 12.7324 21.0118 10.6815C21.0118 4.879 16.3079 0.175781 10.5057 0.175781C4.70343 0.175781 0 4.879 0 10.6815C0 16.4841 4.70321 21.1869 10.5057 21.1869C12.7377 21.1869 14.805 20.4891 16.5062 19.3034L22.4127 25.2103C22.8231 25.6202 23.3611 25.8245 23.8985 25.8245C24.4365 25.8245 24.9739 25.6202 25.3849 25.2103C26.2051 24.3892 26.2051 23.0593 25.3843 22.2385ZM10.5057 17.7832C6.58389 17.7832 3.40434 14.6039 3.40434 10.6819C3.40434 6.75989 6.58389 3.58034 10.5057 3.58034C14.4277 3.58034 17.607 6.75989 17.607 10.6819C17.607 14.6039 14.4277 17.7832 10.5057 17.7832Z" fill="#3EC886"/>
</svg>
