<svg width="26" height="26" viewBox="0 0 26 26" fill="none" xmlns="http://www.w3.org/2000/svg">
<g clip-path="url(#clip0)">
<path d="M24.5556 1.42188H1.44436C0.648519 1.42188 0 2.07039 0 2.86623V5.75521C0 6.55105 0.648519 7.19956 1.44436 7.19956H24.5556C25.3515 7.19956 26 6.55105 26 5.75521V2.86623C26 2.07039 25.3515 1.42188 24.5556 1.42188V1.42188Z" fill="#3EC886"/>
<path d="M24.5556 10.0879H1.44436C0.648519 10.0879 0 10.7364 0 11.5322V14.4212C0 15.2171 0.648519 15.8656 1.44436 15.8656H24.5556C25.3515 15.8656 26 15.2171 26 14.4212V11.5322C26 10.7364 25.3515 10.0879 24.5556 10.0879V10.0879Z" fill="#3EC886"/>
<path d="M24.5556 18.7559H1.44436C0.648519 18.7559 0 19.4044 0 20.2002V23.0892C0 23.885 0.648519 24.5335 1.44436 24.5335H24.5556C25.3515 24.5335 26 23.885 26 23.0892V20.2002C26 19.4044 25.3515 18.7559 24.5556 18.7559V18.7559Z" fill="#3EC886"/>
</g>
<defs>
<clipPath id="clip0">
<rect width="26" height="26" fill="white"/>
</clipPath>
</defs>
</svg>
