<svg width="16" height="16" viewBox="0 0 16 16" fill="none" xmlns="http://www.w3.org/2000/svg">
<path d="M6.29229 0.708303C7.22863 -0.234897 8.75719 -0.234897 9.70153 0.701103L10.2857 1.2843C10.5098 1.5083 10.8139 1.6371 11.134 1.6371H11.9583C13.2868 1.6371 14.3672 2.7163 14.3672 4.0443V4.8691C14.3672 5.1883 14.4953 5.4923 14.7193 5.7163L15.2956 6.2923C15.7517 6.7403 15.9998 7.3483 15.9998 7.9883C16.0078 8.6283 15.7597 9.2371 15.3116 9.6923L14.7193 10.2843C14.4953 10.5083 14.3672 10.8123 14.3672 11.1331V11.9563C14.3672 13.2843 13.2868 14.3651 11.9583 14.3651H11.134C10.8139 14.3651 10.5098 14.4923 10.2857 14.7163L9.70953 15.2923C9.23736 15.7651 8.62114 15.9963 8.00491 15.9963C7.38869 15.9963 6.77247 15.7651 6.3003 15.3011L5.71608 14.7163C5.492 14.4923 5.18789 14.3651 4.86778 14.3651H4.04348C2.715 14.3651 1.63461 13.2843 1.63461 11.9563V11.1331C1.63461 10.8123 1.50656 10.5083 1.28248 10.2763L0.706269 9.7083C-0.230071 8.7731 -0.238073 7.2443 0.698266 6.3011L1.28248 5.7163C1.50656 5.4923 1.63461 5.1883 1.63461 4.8603V4.0443C1.63461 2.7163 2.715 1.6371 4.04348 1.6371H4.86778C5.18789 1.6371 5.492 1.5083 5.71608 1.2843L6.29229 0.708303ZM10.0617 9.3563C9.66952 9.3563 9.3574 9.6691 9.3574 10.0523C9.3574 10.4443 9.66952 10.7563 10.0617 10.7563C10.4458 10.7563 10.7579 10.4443 10.7579 10.0523C10.7579 9.6691 10.4458 9.3563 10.0617 9.3563ZM10.5498 5.4443C10.2777 5.1731 9.83758 5.1731 9.56548 5.4443L5.45199 9.5563C5.17989 9.8283 5.17989 10.2763 5.45199 10.5483C5.58004 10.6843 5.7561 10.7563 5.94017 10.7563C6.13224 10.7563 6.3083 10.6843 6.43635 10.5483L10.5498 6.4371C10.8219 6.1651 10.8219 5.7163 10.5498 5.4443ZM5.94817 5.2443C5.56403 5.2443 5.24391 5.5563 5.24391 5.9403C5.24391 6.3331 5.56403 6.6443 5.94817 6.6443C6.33231 6.6443 6.64442 6.3331 6.64442 5.9403C6.64442 5.5563 6.33231 5.2443 5.94817 5.2443Z" fill="#3EC886"/>
</svg>
