<svg width="12" height="18" viewBox="0 0 12 18" fill="none" xmlns="http://www.w3.org/2000/svg">
<path d="M3.27273 18H0.818182C0.601187 18 0.393079 17.9138 0.23964 17.7604C0.0862012 17.6069 0 17.3988 0 17.1818V0.818182C0 0.601187 0.0862012 0.393079 0.23964 0.23964C0.393079 0.0862012 0.601187 0 0.818182 0H3.27273C3.48972 0 3.69783 0.0862012 3.85127 0.23964C4.00471 0.393079 4.09091 0.601187 4.09091 0.818182V17.1818C4.09091 17.3988 4.00471 17.6069 3.85127 17.7604C3.69783 17.9138 3.48972 18 3.27273 18ZM10.6364 18H8.18182C7.96482 18 7.75671 17.9138 7.60328 17.7604C7.44984 17.6069 7.36364 17.3988 7.36364 17.1818V0.818182C7.36364 0.601187 7.44984 0.393079 7.60328 0.23964C7.75671 0.0862012 7.96482 0 8.18182 0H10.6364C10.8534 0 11.0615 0.0862012 11.2149 0.23964C11.3683 0.393079 11.4545 0.601187 11.4545 0.818182V17.1818C11.4545 17.3988 11.3683 17.6069 11.2149 17.7604C11.0615 17.9138 10.8534 18 10.6364 18Z" fill="white"/>
</svg>
