<svg width="44" height="42" viewBox="0 0 44 42" fill="none" xmlns="http://www.w3.org/2000/svg">
<path d="M40.5414 0.293945H11.2233C9.31618 0.293945 7.76471 1.84542 7.76471 3.75252V15.8234H3.45857C1.55147 15.8234 0 17.3748 0 19.2819V38.2471C0 40.1542 1.55147 41.7057 3.45857 41.7057H32.7767C34.6838 41.7057 36.2353 40.1542 36.2353 38.2471V26.1763H40.5414C42.4485 26.1763 44 24.6248 44 22.7177V3.75252C44 1.84542 42.4485 0.293945 40.5414 0.293945ZM11.2233 2.88218H40.5414C41.0214 2.88218 41.4118 3.27257 41.4118 3.75252V5.47042H10.3529V3.75252C10.3529 3.27257 10.7433 2.88218 11.2233 2.88218ZM41.4118 8.05865V10.6469H10.3529V8.05865H41.4118ZM33.6471 38.2471C33.6471 38.727 33.2567 39.1175 32.7767 39.1175H3.45857C2.97863 39.1175 2.58824 38.7271 2.58824 38.2471V19.2819C2.58824 18.802 2.97863 18.4116 3.45857 18.4116H32.7767C33.2566 18.4116 33.6471 18.802 33.6471 19.2819V38.2471ZM40.5414 23.5881H36.2353V19.2819C36.2353 17.3748 34.6838 15.8234 32.7767 15.8234H10.3529V13.2351H41.4118V22.7177C41.4118 23.1977 41.0214 23.5881 40.5414 23.5881Z" fill="#3EC886"/>
<path d="M13.3738 25.9737C13.3738 24.6581 12.3036 23.5879 10.988 23.5879H7.56357C6.24797 23.5879 5.17773 24.6581 5.17773 25.9737V28.9668C5.17773 30.2824 6.24797 31.3526 7.56357 31.3526H10.988C12.3036 31.3526 13.3738 30.2824 13.3738 28.9668V25.9737ZM10.7856 28.7644H7.76597V26.1761H10.7856V28.7644Z" fill="#3EC886"/>
<path d="M5.17773 33.9414H10.3542V36.5296H5.17773V33.9414Z" fill="#3EC886"/>
<path d="M12.9414 33.9414H18.1179V36.5296H12.9414V33.9414Z" fill="#3EC886"/>
<path d="M20.7051 33.9414H25.8816V36.5296H20.7051V33.9414Z" fill="#3EC886"/>
<path d="M28.4707 33.9414H31.0589V36.5296H28.4707V33.9414Z" fill="#3EC886"/>
</svg>
