<svg width="26" height="26" viewBox="0 0 26 26" fill="none" xmlns="http://www.w3.org/2000/svg">
<path d="M25.9391 19.6243C25.6362 19.3017 24.5665 18.3475 22.6002 17.0852C20.6194 15.8119 19.1586 15.0179 18.7396 14.8328C18.7027 14.8164 18.662 14.8104 18.6219 14.8154C18.5818 14.8204 18.5439 14.8363 18.5121 14.8612C17.8371 15.3876 16.7008 16.3545 16.6398 16.4068C16.2463 16.744 16.2463 16.744 15.9242 16.6389C15.3578 16.4532 13.5981 15.5188 12.0647 13.982C10.5314 12.4451 9.54883 10.6419 9.36311 10.0761C9.2569 9.75337 9.2569 9.75337 9.59526 9.35987C9.64749 9.29893 10.615 8.16256 11.1414 7.48817C11.1663 7.45641 11.1822 7.41845 11.1872 7.37837C11.1922 7.33828 11.1862 7.29759 11.1698 7.26067C10.9847 6.84106 10.1907 5.38084 8.91738 3.40003C7.65333 1.43431 6.70036 0.36468 6.37767 0.0617252C6.34806 0.033782 6.31146 0.0143432 6.27173 0.00545693C6.23199 -0.00342931 6.1906 -0.00143383 6.1519 0.0112329C5.02394 0.398855 3.93562 0.893456 2.90182 1.48828C1.90382 2.06844 0.958986 2.73555 0.0783066 3.48186C0.0475641 3.508 0.0245158 3.54201 0.0116332 3.58025C-0.00124946 3.61848 -0.0034803 3.65951 0.00517974 3.69892C0.126478 4.2642 0.70627 6.624 2.50542 9.89266C4.34114 13.2286 5.61332 14.9378 8.30915 17.6244C11.005 20.3109 12.7682 21.6597 16.1076 23.4954C19.3763 25.2946 21.7372 25.875 22.3013 25.9951C22.3409 26.0037 22.3819 26.0014 22.4202 25.9885C22.4586 25.9757 22.4927 25.9527 22.519 25.922C23.2652 25.0413 23.9321 24.0965 24.512 23.0984C25.1067 22.0646 25.6013 20.9763 25.989 19.8484C26.0014 19.81 26.0034 19.7689 25.9946 19.7296C25.9858 19.6902 25.9667 19.6538 25.9391 19.6243Z" fill="#3EC886"/>
</svg>
