<svg width="24" height="21" viewBox="0 0 24 21" fill="none" xmlns="http://www.w3.org/2000/svg">
<path d="M20.5714 0H3.42857C2.51956 0.000992601 1.64807 0.362535 1.0053 1.0053C0.362535 1.64807 0.000992601 2.51956 0 3.42857V17.1429C0.000992601 18.0519 0.362535 18.9234 1.0053 19.5661C1.64807 20.2089 2.51956 20.5704 3.42857 20.5714H20.5714C21.4804 20.5704 22.3519 20.2089 22.9947 19.5661C23.6375 18.9234 23.999 18.0519 24 17.1429V3.42857C23.999 2.51956 23.6375 1.64807 22.9947 1.0053C22.3519 0.362535 21.4804 0.000992601 20.5714 0ZM16.2857 3.42857C16.7943 3.42857 17.2915 3.57938 17.7143 3.86194C18.1372 4.14449 18.4668 4.54609 18.6614 5.01596C18.856 5.48582 18.907 6.00285 18.8077 6.50166C18.7085 7.00047 18.4636 7.45865 18.104 7.81827C17.7444 8.1779 17.2862 8.4228 16.7874 8.52202C16.2886 8.62124 15.7715 8.57032 15.3017 8.37569C14.8318 8.18107 14.4302 7.85148 14.1476 7.42861C13.8651 7.00574 13.7143 6.50858 13.7143 6C13.715 5.31823 13.9861 4.66459 14.4682 4.18251C14.9503 3.70043 15.6039 3.42928 16.2857 3.42857ZM3.42857 18.8571C2.97391 18.8571 2.53788 18.6765 2.21639 18.355C1.8949 18.0335 1.71429 17.5975 1.71429 17.1429V13.5198L6.795 9.00375C7.2852 8.56899 7.92272 8.33749 8.57766 8.3564C9.23261 8.37531 9.8557 8.64322 10.32 9.10554L13.7995 12.5775L7.51982 18.8571H3.42857ZM22.2857 17.1429C22.2857 17.5975 22.1051 18.0335 21.7836 18.355C21.4621 18.6765 21.0261 18.8571 20.5714 18.8571H9.94446L16.4491 12.3525C16.9096 11.9609 17.4941 11.7451 18.0986 11.7435C18.7032 11.742 19.2887 11.9547 19.7513 12.3439L22.2857 14.4557V17.1429Z" fill="#C4C4C4"/>
</svg>
