<svg width="24" height="28" viewBox="0 0 24 28" fill="none" xmlns="http://www.w3.org/2000/svg">
<path d="M2.77239 27.604C2.31184 27.6031 1.85944 27.4824 1.4597 27.2537C0.559578 26.7436 0 25.7535 0 24.6786V2.92554C0 1.84764 0.559578 0.860502 1.4597 0.350431C1.86896 0.115226 2.33389 -0.00572932 2.80588 0.000208557C3.27788 0.00614644 3.73961 0.138759 4.14283 0.384186L22.7342 11.5127C23.1216 11.7557 23.441 12.0931 23.6624 12.4932C23.8839 12.8934 24 13.3432 24 13.8006C24 14.2579 23.8839 14.7077 23.6624 15.1079C23.441 15.508 23.1216 15.8454 22.7342 16.0884L4.13983 27.2199C3.72719 27.4694 3.25456 27.6021 2.77239 27.604Z" fill="white"/>
</svg>
