<svg width="64" height="63" viewBox="0 0 64 63" fill="none" xmlns="http://www.w3.org/2000/svg">
<path d="M32.7864 0C24.1294 0 15.8921 3.59138 9.99638 9.89013L9.00038 8.89412C8.56475 8.4585 7.85838 8.4585 7.42288 8.89412L2.40213 13.9149C-0.712123 17.0291 -0.797873 22.0411 2.14263 25.2611C1.76588 27.2142 1.573 29.2134 1.573 31.2135C1.573 48.4248 15.5752 62.427 32.7865 62.427C49.9977 62.427 64 48.4248 64 31.2135C64 14.0023 49.9976 0 32.7864 0ZM3.97975 15.4925L8.21175 11.2605L12.4438 15.4925C14.7773 17.826 14.7773 21.623 12.4438 23.9565C10.1103 26.2899 6.31338 26.29 3.97975 23.9565C2.84925 22.826 2.22688 21.3231 2.22688 19.7245C2.22675 18.126 2.84938 16.6231 3.97975 15.4925ZM32.7864 60.1959C16.8056 60.1959 3.804 47.1945 3.804 31.2135C3.804 29.753 3.91538 28.2935 4.13213 26.8551C5.39138 27.575 6.801 27.9367 8.21163 27.9367C10.3156 27.9367 12.4195 27.1359 14.0214 25.5341C15.5733 23.9823 16.4279 21.9191 16.4279 19.7245C16.4279 17.5299 15.5733 15.4668 14.0214 13.9148L11.5748 11.4683C17.0526 5.58613 24.7237 2.23113 32.7864 2.23113C48.7674 2.23113 61.7687 15.2325 61.7687 31.2135C61.7687 47.1945 48.7674 60.1959 32.7864 60.1959Z" fill="#2C2C2C"/>
<path d="M35.9686 48.5973C33.7291 47.5197 31.3616 47.5197 29.1223 48.5973C28.5672 48.8644 28.3337 49.531 28.6008 50.0862C28.8679 50.6413 29.5346 50.8748 30.0897 50.6077C31.6964 49.8347 33.3946 49.8347 35.0013 50.6077C35.1572 50.6827 35.3219 50.7183 35.4843 50.7183C35.8996 50.7183 36.2982 50.4854 36.4904 50.0862C36.7573 49.5312 36.5238 48.8647 35.9686 48.5973Z" fill="#2C2C2C"/>
<path d="M52.4014 38.8573C49.5793 36.2943 45.7166 35.4259 42.0691 36.5336C41.4796 36.7128 41.1467 37.3358 41.3258 37.9253C41.5049 38.5149 42.1286 38.8475 42.7174 38.6685C45.6068 37.7908 48.6661 38.4789 50.9013 40.509C51.1151 40.7031 51.3834 40.7988 51.6509 40.7988C51.9546 40.7988 52.2569 40.6756 52.4772 40.4331C52.8916 39.9771 52.8576 39.2715 52.4014 38.8573Z" fill="#2C2C2C"/>
<path d="M23.5046 36.5338C19.8571 35.4258 15.9943 36.2943 13.1722 38.8574C12.7162 39.2716 12.6822 39.9771 13.0963 40.4333C13.3164 40.6758 13.6189 40.7989 13.9225 40.7989C14.19 40.7989 14.4587 40.7031 14.6722 40.5091C16.9073 38.4791 19.9667 37.791 22.8561 38.6686C23.4453 38.8475 24.0686 38.515 24.2477 37.9254C24.4268 37.336 24.0941 36.7129 23.5046 36.5338Z" fill="#2C2C2C"/>
<path d="M42.4104 47.8929C39.8509 44.9039 36.4335 43.2578 32.7875 43.2578C29.1416 43.2578 25.7239 44.9041 23.1647 47.8929C22.764 48.3609 22.8185 49.0652 23.2866 49.4659C23.7546 49.8667 24.4587 49.8122 24.8596 49.3441C26.9882 46.8582 29.8037 45.4889 32.7877 45.4889C35.7715 45.4889 38.587 46.8581 40.7157 49.3441C40.9363 49.6017 41.249 49.7341 41.5636 49.7341C41.8204 49.7341 42.0784 49.6461 42.2887 49.4658C42.7565 49.0651 42.811 48.3609 42.4104 47.8929Z" fill="#2C2C2C"/>
</svg>
