<svg width="14" height="14" viewBox="0 0 14 14" fill="none" xmlns="http://www.w3.org/2000/svg">
<path d="M6.72808 0C10.4439 0 13.4562 2.94573 13.4562 6.57948C13.4562 8.29433 12.7853 9.85596 11.6862 11.0271L13.8478 13.1345C14.0504 13.3322 14.0508 13.653 13.8487 13.8511C13.665 14.0312 13.3772 14.048 13.1741 13.901L13.1159 13.8521L10.9289 11.7192C9.7777 12.6202 8.31723 13.159 6.72808 13.159C3.01226 13.159 0 10.2132 0 6.57948C0 2.94573 3.01226 0 6.72808 0ZM6.72808 1.01342C3.5846 1.01342 1.03631 3.50543 1.03631 6.57948C1.03631 9.65353 3.5846 12.1455 6.72808 12.1455C9.87156 12.1455 12.4199 9.65353 12.4199 6.57948C12.4199 3.50543 9.87156 1.01342 6.72808 1.01342Z" fill="#C1C1C1"/>
</svg>
