<svg width="16" height="16" viewBox="0 0 16 16" fill="none" xmlns="http://www.w3.org/2000/svg">
<path d="M14.0339 1H9.89684C9.76821 0.999907 9.64476 1.05074 9.55349 1.14138L1.28276 9.41211C1.10166 9.5941 1 9.84039 1 10.0971C1 10.3539 1.10166 10.6002 1.28276 10.7821L5.2212 14.7206C5.40319 14.9017 5.64949 15.0034 5.90622 15.0034C6.16296 15.0034 6.40926 14.9017 6.59124 14.7206L14.8586 6.45323C14.9493 6.36196 15.0001 6.23851 15 6.10988V1.96946C15.0006 1.84226 14.9761 1.71619 14.9278 1.59851C14.8795 1.48083 14.8084 1.37386 14.7186 1.28376C14.6288 1.19365 14.5221 1.1222 14.4046 1.0735C14.2871 1.0248 14.1611 0.999822 14.0339 1V1Z" stroke="#C4C4C4" stroke-linecap="round" stroke-linejoin="round"/>
<path d="M12.3096 4.77057C12.0966 4.77057 11.8883 4.7074 11.7112 4.58904C11.534 4.47067 11.3959 4.30244 11.3144 4.10561C11.2329 3.90878 11.2116 3.6922 11.2531 3.48324C11.2947 3.27429 11.3973 3.08236 11.5479 2.93171C11.6986 2.78106 11.8905 2.67847 12.0995 2.63691C12.3084 2.59535 12.525 2.61668 12.7218 2.69821C12.9187 2.77974 13.0869 2.9178 13.2052 3.09494C13.3236 3.27208 13.3868 3.48035 13.3868 3.69339C13.3868 3.97908 13.2733 4.25306 13.0713 4.45507C12.8693 4.65708 12.5953 4.77057 12.3096 4.77057Z" fill="#C4C4C4"/>
</svg>
