<svg width="26" height="34" viewBox="0 0 26 34" fill="none" xmlns="http://www.w3.org/2000/svg">
<path d="M15.3209 12.186H24.8828C24.9118 12.1859 24.9402 12.1772 24.9643 12.161C24.9884 12.1448 25.0072 12.1218 25.0183 12.095C25.0294 12.0681 25.0323 12.0386 25.0267 12.0101C25.021 11.9816 25.0071 11.9554 24.9866 11.9348L14.3935 1.34167C14.3729 1.32119 14.3467 1.30726 14.3182 1.30163C14.2897 1.29599 14.2602 1.29891 14.2333 1.31001C14.2065 1.32111 14.1835 1.33989 14.1673 1.36401C14.1511 1.38812 14.1424 1.41648 14.1423 1.44553V11.0074C14.1423 11.32 14.2665 11.6198 14.4875 11.8408C14.7085 12.0618 15.0083 12.186 15.3209 12.186ZM12.9637 18.0789C12.314 18.0789 11.7852 18.5414 11.7852 19.1101V20.436H14.1423V19.1101C14.1423 18.5414 13.6134 18.0789 12.9637 18.0789Z" fill="#3EC886"/>
<path d="M25.6339 14.5432H15.3214C14.3837 14.5432 13.4844 14.1707 12.8213 13.5077C12.1582 12.8446 11.7857 11.9453 11.7857 11.0075V0.695033C11.7857 0.616889 11.7547 0.541946 11.6994 0.48669C11.6442 0.431433 11.5692 0.400391 11.4911 0.400391H4.71429C3.46398 0.400391 2.26488 0.897073 1.38078 1.78117C0.496682 2.66527 0 3.86437 0 5.11468V28.6861C0 29.9364 0.496682 31.1355 1.38078 32.0196C2.26488 32.9037 3.46398 33.4004 4.71429 33.4004H21.2143C22.4646 33.4004 23.6637 32.9037 24.5478 32.0196C25.4319 31.1355 25.9286 29.9364 25.9286 28.6861V14.8379C25.9286 14.7597 25.8975 14.6848 25.8423 14.6295C25.787 14.5743 25.7121 14.5432 25.6339 14.5432ZM18.8571 26.329C18.8571 26.9541 18.6088 27.5537 18.1668 27.9957C17.7247 28.4378 17.1252 28.6861 16.5 28.6861H9.42857C8.80342 28.6861 8.20387 28.4378 7.76182 27.9957C7.31977 27.5537 7.07143 26.9541 7.07143 26.329V22.7932C7.07143 22.1681 7.31977 21.5685 7.76182 21.1265C8.20387 20.6844 8.80342 20.4361 9.42857 20.4361V19.1102C9.42857 17.2422 11.0145 15.7218 12.9643 15.7218C14.9141 15.7218 16.5 17.2422 16.5 19.1102V20.4361C17.1252 20.4361 17.7247 20.6844 18.1668 21.1265C18.6088 21.5685 18.8571 22.1681 18.8571 22.7932V26.329Z" fill="#3EC886"/>
</svg>
