<svg width="19" height="20" viewBox="0 0 19 20" fill="none" xmlns="http://www.w3.org/2000/svg">
<path d="M10.0128 7.32145C9.46055 7.26691 8.90494 7.38439 8.42205 7.65782C7.93915 7.93125 7.55257 8.34726 7.31524 8.84888C7.07791 9.3505 7.00143 9.91322 7.09626 10.46C7.1911 11.0068 7.45262 11.5108 7.84501 11.9032C8.23741 12.2956 8.7415 12.5572 9.28827 12.652C9.83504 12.7468 10.3978 12.6704 10.8994 12.433C11.401 12.1957 11.817 11.8091 12.0904 11.3262C12.3639 10.8433 12.4814 10.2877 12.4268 9.73547C12.3646 9.11639 12.0903 8.53785 11.6504 8.0979C11.2104 7.65794 10.6319 7.38363 10.0128 7.32145V7.32145ZM16.4936 10C16.4919 10.2926 16.4704 10.5847 16.4293 10.8743L18.3306 12.3657C18.4134 12.4343 18.4692 12.53 18.4881 12.6359C18.507 12.7418 18.4877 12.8509 18.4337 12.9439L16.6349 16.0561C16.5803 16.1482 16.4949 16.2181 16.3938 16.2534C16.2927 16.2887 16.1824 16.2872 16.0823 16.2491L14.194 15.4887C14.0899 15.4473 13.9771 15.4323 13.8657 15.4451C13.7544 15.458 13.648 15.4983 13.556 15.5623C13.2678 15.7608 12.965 15.9371 12.6501 16.0897C12.5511 16.1378 12.4655 16.2096 12.4008 16.2986C12.3361 16.3877 12.2944 16.4913 12.2792 16.6003L11.9962 18.6143C11.9776 18.7207 11.9226 18.8173 11.8407 18.8877C11.7588 18.958 11.655 18.9977 11.547 19H7.94952C7.84335 18.9982 7.74097 18.9602 7.65925 18.8924C7.57752 18.8246 7.52134 18.731 7.49994 18.627L7.21733 16.6158C7.20146 16.5056 7.1586 16.401 7.09256 16.3114C7.02653 16.2217 6.93937 16.1498 6.83882 16.1019C6.52433 15.9501 6.22252 15.7733 5.9363 15.5733C5.84466 15.5095 5.73859 15.4696 5.62765 15.457C5.51672 15.4444 5.40441 15.4597 5.30083 15.5014L3.41293 16.2613C3.31289 16.2994 3.2026 16.301 3.10151 16.2657C3.00042 16.2305 2.91501 16.1607 2.86032 16.0687L1.06158 12.9565C1.0075 12.8636 0.988175 12.7544 1.00704 12.6485C1.02591 12.5426 1.08175 12.4469 1.16462 12.3783L2.77158 11.1166C2.85962 11.0467 2.92881 10.9559 2.97288 10.8525C3.01694 10.7491 3.03449 10.6363 3.02392 10.5244C3.00878 10.3491 2.99952 10.1741 2.99952 9.99874C2.99952 9.82336 3.00835 9.65093 3.02392 9.47935C3.03333 9.36812 3.01493 9.2563 2.97036 9.15396C2.9258 9.05161 2.85647 8.96196 2.76864 8.89308L1.16251 7.6314C1.08099 7.56247 1.02633 7.46705 1.00811 7.36185C0.989883 7.25666 1.00926 7.14841 1.06284 7.05607L2.86158 3.94393C2.9162 3.85182 3.00159 3.78195 3.10269 3.74664C3.20378 3.71132 3.3141 3.71283 3.4142 3.75089L5.30251 4.51126C5.40665 4.55272 5.51944 4.5677 5.63078 4.55486C5.74213 4.54201 5.84855 4.50175 5.9405 4.43766C6.22869 4.23921 6.53153 4.06291 6.84639 3.91028C6.94538 3.86217 7.031 3.79042 7.0957 3.70138C7.16039 3.61234 7.20216 3.50873 7.21733 3.39972L7.50036 1.38565C7.51895 1.27929 7.57391 1.18268 7.65583 1.11233C7.73776 1.04199 7.84157 1.00229 7.94952 1H11.547C11.6532 1.00184 11.7556 1.03979 11.8373 1.10759C11.919 1.1754 11.9752 1.26902 11.9966 1.37304L12.2792 3.38416C12.2951 3.49437 12.3379 3.59896 12.404 3.68862C12.47 3.77828 12.5572 3.85023 12.6577 3.89808C12.9722 4.04989 13.274 4.22667 13.5602 4.42673C13.6519 4.49049 13.7579 4.53045 13.8689 4.543C13.9798 4.55556 14.0921 4.54031 14.1957 4.49865L16.0836 3.73869C16.1836 3.70059 16.2939 3.69902 16.395 3.73426C16.4961 3.7695 16.5815 3.83928 16.6362 3.93131L18.4349 7.04346C18.489 7.13644 18.5083 7.24559 18.4895 7.35149C18.4706 7.45739 18.4148 7.55315 18.3319 7.62173L16.7249 8.88341C16.6365 8.95307 16.5669 9.04374 16.5225 9.14716C16.478 9.25058 16.4602 9.36347 16.4705 9.47556C16.4844 9.64967 16.4936 9.82463 16.4936 10Z" stroke="#3EC886" stroke-linecap="round" stroke-linejoin="round"/>
</svg>
