<svg width="16" height="19" viewBox="0 0 16 19" fill="none" xmlns="http://www.w3.org/2000/svg">
<path d="M12.625 11.5C11.6055 11.5 10.6914 11.957 10.0938 12.6602L6.71875 10.5508C7.07031 9.74219 7.07031 8.79297 6.71875 7.98438L10.0938 5.875C10.6914 6.57812 11.6055 7 12.625 7C14.4883 7 16 5.48828 16 3.625C16 1.76172 14.4883 0.25 12.625 0.25C10.7617 0.25 9.25 1.76172 9.25 3.625C9.25 4.08203 9.32031 4.53906 9.49609 4.92578L6.12109 7.03516C5.52344 6.33203 4.60938 5.875 3.625 5.875C1.76172 5.875 0.25 7.38672 0.25 9.25C0.25 11.1133 1.76172 12.625 3.625 12.625C4.60938 12.625 5.52344 12.2031 6.12109 11.5L9.49609 13.6094C9.32031 13.9961 9.25 14.418 9.25 14.875C9.25 16.7383 10.7617 18.25 12.625 18.25C14.4883 18.25 16 16.7383 16 14.875C16 13.0117 14.4883 11.5 12.625 11.5ZM12.625 1.375C13.8555 1.375 14.875 2.39453 14.875 3.625C14.875 4.89062 13.8555 5.875 12.625 5.875C11.3594 5.875 10.375 4.89062 10.375 3.625C10.375 2.39453 11.3594 1.375 12.625 1.375ZM3.625 11.5C2.35938 11.5 1.375 10.5156 1.375 9.25C1.375 8.01953 2.35938 7 3.625 7C4.85547 7 5.875 8.01953 5.875 9.25C5.875 10.5156 4.85547 11.5 3.625 11.5ZM12.625 17.125C11.3594 17.125 10.375 16.1406 10.375 14.875C10.375 13.6445 11.3594 12.625 12.625 12.625C13.8555 12.625 14.875 13.6445 14.875 14.875C14.875 16.1406 13.8555 17.125 12.625 17.125Z" fill="#575757"/>
</svg>
