<svg width="30" height="30" viewBox="0 0 30 30" fill="none" xmlns="http://www.w3.org/2000/svg">
<g clip-path="url(#clip0)">
<path d="M29.375 11.252H24.2498L18.4204 2.77297C18.2249 2.48856 17.8358 2.41643 17.5514 2.6119L16.5211 3.32C16.2366 3.51553 16.1645 3.90465 16.36 4.18913L21.2157 11.252H8.78426L13.64 4.18913C13.8355 3.90465 13.7634 3.51553 13.4789 3.32L12.4485 2.6119C12.1641 2.41643 11.775 2.48856 11.5795 2.77297L5.75021 11.252H0.62502C0.279844 11.252 0 11.5317 0 11.877V13.127C0 13.4721 0.279844 13.752 0.62502 13.752H1.41797L5.23869 25.7601C5.57074 26.8019 6.52775 27.502 7.62088 27.502H22.3792C23.4723 27.502 24.4294 26.8019 24.7614 25.7594L28.582 13.752H29.375C29.7202 13.752 30.0001 13.4721 30.0001 13.127V11.877C30 11.5317 29.7202 11.252 29.375 11.252Z" fill="#3EC886"/>
</g>
<defs>
<clipPath id="clip0">
<rect width="30" height="30" fill="white"/>
</clipPath>
</defs>
</svg>
