<svg width="41" height="37" viewBox="0 0 41 37" fill="none" xmlns="http://www.w3.org/2000/svg">
<path d="M38.9922 5H9.32031L8.6875 1.90625C8.54688 1.13281 7.84375 0.5 7.07031 0.5H1.09375C0.601562 0.5 0.25 0.921875 0.25 1.34375V1.90625C0.25 2.39844 0.601562 2.75 1.09375 2.75H6.57812L11.5 28.9766C10.7969 29.8203 10.375 30.875 10.375 32C10.375 34.5312 12.3438 36.5 14.875 36.5C17.3359 36.5 19.375 34.5312 19.375 32C19.375 31.3672 19.0938 30.3828 18.7422 29.75H28.9375C28.5859 30.3828 28.375 31.3672 28.375 32C28.375 34.5312 30.3438 36.5 32.875 36.5C35.3359 36.5 37.375 34.5312 37.375 32C37.375 30.8047 36.8125 29.6094 35.9688 28.8359C35.8281 28.0625 35.125 27.5 34.3516 27.5H13.5391L12.6953 23H35.9688C36.8125 23 37.4453 22.5078 37.6562 21.6641L40.6797 7.03906C40.8906 5.98438 40.1172 5 38.9922 5ZM17.125 32C17.125 33.2656 16.0703 34.25 14.875 34.25C13.6094 34.25 12.625 33.2656 12.625 32C12.625 30.8047 13.6094 29.75 14.875 29.75C16.0703 29.75 17.125 30.8047 17.125 32ZM32.875 34.25C31.6094 34.25 30.625 33.2656 30.625 32C30.625 30.8047 31.6094 29.75 32.875 29.75C34.0703 29.75 35.125 30.8047 35.125 32C35.125 33.2656 34.0703 34.25 32.875 34.25ZM35.5469 20.75H12.2734L9.74219 7.25H38.3594L35.5469 20.75Z" fill="#3EC886"/>
</svg>
