<svg width="24" height="23" viewBox="0 0 24 23" fill="none" xmlns="http://www.w3.org/2000/svg">
<path d="M19.1002 14.1821C18.7894 14.4833 18.6466 14.9189 18.7174 15.346L19.7841 21.2492C19.8741 21.7496 19.6629 22.2559 19.2441 22.5451C18.8338 22.845 18.2879 22.881 17.8403 22.641L12.5262 19.8694C12.3414 19.771 12.1363 19.7182 11.9263 19.7122H11.6011C11.4883 19.729 11.378 19.765 11.2772 19.8202L5.96187 22.605C5.69911 22.737 5.40155 22.7838 5.10998 22.737C4.39968 22.6026 3.92574 21.9259 4.04212 21.212L5.10998 15.3088C5.18077 14.8781 5.03799 14.4401 4.72723 14.1342L0.394599 9.9347C0.0322468 9.58315 -0.0937368 9.05522 0.0718416 8.57888C0.232621 8.10374 0.642967 7.75699 1.1385 7.679L7.10172 6.81391C7.55526 6.76712 7.95361 6.49115 8.15759 6.08321L10.7852 0.695909C10.8476 0.575925 10.928 0.465539 11.0252 0.371951L11.1332 0.287962C11.1896 0.225571 11.2544 0.173977 11.3264 0.131983L11.4572 0.083989L11.6611 0H12.1663C12.6174 0.0467939 13.0146 0.316759 13.2221 0.719906L15.8846 6.08321C16.0766 6.47555 16.4497 6.74792 16.8804 6.81391L22.8437 7.679C23.3476 7.75099 23.7687 8.09894 23.9355 8.57888C24.0927 9.06002 23.9571 9.58795 23.5876 9.9347L19.1002 14.1821Z" fill="#D9D9D9"/>
</svg>
