<svg width="42" height="44" viewBox="0 0 42 44" fill="none" xmlns="http://www.w3.org/2000/svg">
<path d="M36.9475 31.9257L36.8982 31.8674C34.4935 29.0196 31.2014 27.0813 27.5377 26.2865C29.4572 24.9132 30.9414 22.9693 31.7416 20.7049H34.689C36.3405 20.7049 37.6839 19.3614 37.6839 17.71V16.8226C37.6839 7.54606 30.1369 -0.000976562 20.8604 -0.000976562C11.5839 -0.000976562 4.03688 7.54606 4.03688 16.8226V17.71C4.03688 19.3614 5.38043 20.7049 7.03181 20.7049H9.87231C10.6856 23.0065 12.2059 24.9765 14.1713 26.3533C10.6246 27.1859 7.44256 29.0953 5.10168 31.8673L5.05198 31.9262C2.35556 35.1194 0.988281 38.7459 0.988281 42.7049V43.999H41.0117V42.7049C41.0117 38.7459 39.6444 35.1195 36.9475 31.9257ZM20.807 25.8574C17.2193 25.8574 14.1152 23.7482 12.6686 20.7049H19.135V18.1167H11.8909C11.8326 17.7033 11.8017 17.2813 11.8017 16.8521C11.8017 11.8864 15.8415 7.84664 20.807 7.84664C25.7725 7.84664 29.8123 11.8864 29.8123 16.8521C29.8123 21.8177 25.7726 25.8574 20.807 25.8574ZM35.0958 17.71C35.0958 17.9343 34.9133 18.1167 34.6891 18.1167H32.3314C32.3767 17.7012 32.4007 17.2794 32.4007 16.8521C32.4007 16.4045 32.3743 15.963 32.3247 15.5284H35.0363C35.075 15.9548 35.0958 16.3863 35.0958 16.8226V17.71ZM20.8605 2.58726C27.3645 2.58726 32.8636 6.97173 34.5576 12.9402H31.7208C30.1124 8.46652 25.8276 5.2584 20.807 5.2584C15.7864 5.2584 11.5016 8.46652 9.89328 12.9402H7.16338C8.85738 6.97173 14.3565 2.58726 20.8605 2.58726ZM7.0319 18.1167C6.80758 18.1167 6.6252 17.9343 6.6252 17.71V16.8226C6.6252 16.3863 6.64608 15.9548 6.68464 15.5284H9.28944C9.23983 15.963 9.21344 16.4045 9.21344 16.8521C9.21344 17.2794 9.23742 17.7012 9.28271 18.1167H7.0319ZM3.63613 41.4108C3.90005 38.5779 5.03827 35.9542 7.02957 33.5961L7.07926 33.5372C9.79889 30.3167 13.8741 28.4696 18.2599 28.4696H23.7402C28.126 28.4696 32.2012 30.3167 34.9212 33.5377L34.9704 33.596C36.9617 35.9542 38.1 38.5779 38.3639 41.4108H3.63613Z" fill="#3EC886"/>
</svg>
