<svg width="17" height="16" viewBox="0 0 17 16" fill="none" xmlns="http://www.w3.org/2000/svg">
<path d="M16.4258 7.09375C16.6133 6.375 16.5195 5.53125 16.1445 4.90625C16.2695 4.1875 16.0195 3.375 15.5508 2.8125C15.6133 1.125 14.582 0 12.7383 0.03125C12.6445 0 11.6133 0.03125 11.457 0.03125C9.05078 0 7.01953 1.25 5.92578 1.25H5.58203C5.39453 1.125 5.17578 1 4.92578 1H1.92578C1.36328 1 0.925781 1.46875 0.925781 2V10C0.925781 10.5625 1.36328 11 1.92578 11H4.92578C5.45703 11 5.92578 10.5625 5.92578 10V9.625C5.92578 9.625 5.95703 9.65625 5.98828 9.65625C6.67578 10 7.76953 11.8125 8.51953 12.5312C8.83203 12.8438 8.92578 13.375 9.05078 13.9062C9.20703 14.8438 9.55078 16 10.4883 16C12.3633 16 13.082 14.9375 13.082 13.0938C13.082 12.1562 12.707 11.4688 12.457 10.9375H14.6445C15.8945 10.9375 16.9258 9.84375 16.9258 8.65625C16.9258 8 16.7383 7.5 16.4258 7.09375ZM4.92578 10H1.92578V2H4.92578V10ZM14.6445 9.9375H11.1445C11.1445 11.1875 12.082 11.7812 12.082 13.0938C12.082 13.9062 12.082 15.0312 10.4883 15.0312C9.86328 14.375 10.1758 12.7812 9.23828 11.8438C8.33203 10.9375 6.98828 8.65625 6.05078 8.65625H5.92578V2.28125H6.05078C7.14453 2.28125 9.23828 1.03125 11.457 1.03125C11.5508 1.03125 12.6133 1 12.7383 1.03125C13.9258 1.03125 14.7695 1.59375 14.5195 3.21875C15.0195 3.5 15.3945 4.46875 14.9883 5.15625C15.6758 5.5 15.6758 7 15.1758 7.375C15.6758 7.5 15.9258 8.03125 15.9258 8.65625C15.8945 9.28125 15.3633 9.9375 14.6445 9.9375ZM4.17578 8.5C4.17578 8.09375 3.83203 7.75 3.42578 7.75C2.98828 7.75 2.67578 8.09375 2.67578 8.5C2.67578 8.9375 2.98828 9.25 3.42578 9.25C3.83203 9.25 4.17578 8.9375 4.17578 8.5Z" fill="#E05C5C"/>
</svg>
