<svg width="17" height="17" viewBox="0 0 17 17" fill="none" xmlns="http://www.w3.org/2000/svg">
<path d="M16.4258 8.9375C16.7383 8.53125 16.9258 8 16.9258 7.375C16.8945 6.1875 15.8945 5.09375 14.6445 5.09375H12.457C12.707 4.5625 13.082 3.875 13.082 2.9375C13.082 1.09375 12.3633 0 10.4883 0C9.55078 0 9.20703 1.1875 9.05078 2.125C8.92578 2.65625 8.83203 3.1875 8.51953 3.5C7.76953 4.21875 6.67578 6 5.98828 6.375C5.92578 6.40625 5.83203 6.4375 5.73828 6.4375C5.55078 6.1875 5.23828 6 4.92578 6H1.92578C1.36328 6 0.925781 6.46875 0.925781 7V15C0.925781 15.5625 1.36328 16 1.92578 16H4.92578C5.45703 16 5.92578 15.5625 5.92578 15V14.75C6.92578 14.75 9.05078 16.0312 11.457 16C11.6133 16 12.6445 16.0312 12.7383 16C14.582 16 15.6133 14.9062 15.5508 13.2188C16.0195 12.6562 16.2695 11.8438 16.1445 11.125C16.5195 10.5 16.6133 9.65625 16.4258 8.9375ZM1.92578 15V7H4.92578V15H1.92578ZM15.1758 8.65625C15.6758 9 15.6758 10.5 14.9883 10.875C15.3945 11.5625 15.0195 12.5312 14.5195 12.8125C14.7695 14.4375 13.9258 15 12.7383 15C12.6133 15.0312 11.5508 15 11.457 15C9.17578 15 7.23828 13.75 5.92578 13.75V7.375C7.08203 7.375 8.17578 5.25 9.23828 4.1875C10.1758 3.25 9.86328 1.65625 10.4883 1C12.082 1 12.082 2.125 12.082 2.9375C12.082 4.25 11.1445 4.84375 11.1445 6.09375H14.6445C15.3633 6.09375 15.8945 6.75 15.9258 7.375C15.9258 8 15.6758 8.5 15.1758 8.65625ZM4.17578 13.5C4.17578 13.0938 3.83203 12.75 3.42578 12.75C2.98828 12.75 2.67578 13.0938 2.67578 13.5C2.67578 13.9375 2.98828 14.25 3.42578 14.25C3.83203 14.25 4.17578 13.9375 4.17578 13.5Z" fill="#3EC886"/>
</svg>
