<svg width="14" height="16" viewBox="0 0 14 16" fill="none" xmlns="http://www.w3.org/2000/svg">
<path d="M13.75 2H10.5L9.4375 0.625C9.1875 0.28125 8.65625 0 8.25 0H5.75C5.3125 0 4.78125 0.28125 4.53125 0.625L3.5 2H0.25C0.09375 2 0 2.125 0 2.25V2.75C0 2.90625 0.09375 3 0.25 3H0.8125L1.875 14.6562C1.9375 15.4062 2.59375 16 3.34375 16H10.625C11.375 16 12.0312 15.4062 12.0938 14.6562L13.1562 3H13.75C13.875 3 14 2.90625 14 2.75V2.25C14 2.125 13.875 2 13.75 2ZM5.34375 1.21875C5.40625 1.09375 5.59375 1.03125 5.75 1H8.25C8.375 1.03125 8.5625 1.09375 8.625 1.21875L9.25 2H4.75L5.34375 1.21875ZM11.125 14.5625C11.0938 14.8125 10.875 15 10.625 15H3.34375C3.09375 15 2.875 14.8125 2.875 14.5625L1.84375 3H12.1562L11.125 14.5625Z" fill="#E05C5C"/>
</svg>
