<svg width="45" height="35" viewBox="0 0 45 35" fill="none" xmlns="http://www.w3.org/2000/svg">
<path d="M44.4375 25.5H42.75V17.9062C42.75 16.7812 42.2578 15.5859 41.4141 14.7422L35.5078 8.83594C34.6641 7.99219 33.5391 7.5 32.3438 7.5H29.25V4.05469C29.25 2.22656 27.6328 0.75 25.7344 0.75H3.44531C1.54688 0.75 0 2.22656 0 4.05469V24.5156C0 26.3438 1.54688 27.75 3.44531 27.75H4.57031C4.5 28.1719 4.5 28.5234 4.5 28.875C4.5 32.0391 6.96094 34.5 10.125 34.5C13.2188 34.5 15.75 32.0391 15.75 28.875C15.75 28.5234 15.6797 28.1719 15.6094 27.75H29.3203C29.25 28.1719 29.25 28.5234 29.25 28.875C29.25 32.0391 31.7109 34.5 34.875 34.5C37.9688 34.5 40.5 32.0391 40.5 28.875C40.5 28.5234 40.4297 28.1719 40.3594 27.75H44.4375C44.7188 27.75 45 27.5391 45 27.1875V26.0625C45 25.7812 44.7188 25.5 44.4375 25.5ZM32.3438 9.75C32.9062 9.75 33.4688 10.0312 33.8906 10.4531L39.7969 16.3594C39.8672 16.4297 39.8672 16.5 39.9375 16.5703H29.25V9.82031H32.3438V9.75ZM10.125 32.25C8.22656 32.25 6.75 30.7734 6.75 28.875C6.75 27.0469 8.22656 25.5 10.125 25.5C11.9531 25.5 13.5 27.0469 13.5 28.875C13.5 30.7734 11.9531 32.25 10.125 32.25ZM14.5547 25.5C13.5703 24.1641 11.9531 23.25 10.125 23.25C8.29688 23.25 6.67969 24.1641 5.625 25.5H3.44531C2.74219 25.5 2.25 25.0781 2.25 24.5156V4.05469C2.25 3.49219 2.74219 3 3.44531 3H25.7344C26.4375 3 27 3.49219 27 4.05469V25.5H14.5547ZM34.875 32.25C32.9766 32.25 31.5 30.7734 31.5 28.875C31.5 27.0469 32.9766 25.5 34.875 25.5C36.7031 25.5 38.25 27.0469 38.25 28.875C38.25 30.7734 36.7031 32.25 34.875 32.25ZM34.875 23.25C32.9766 23.25 31.4297 24.1641 30.375 25.5H29.25V18.75H40.5V25.5H39.3047C38.3203 24.1641 36.7031 23.25 34.875 23.25Z" fill="#3EC886"/>
</svg>
