<svg width="24" height="15" viewBox="0 0 24 15" fill="none" xmlns="http://www.w3.org/2000/svg">
<path d="M22.4 13.6195C22.176 13.6193 21.9546 13.5722 21.75 13.481C21.7024 13.4599 21.657 13.4341 21.6145 13.404L17.479 10.493C17.2693 10.3454 17.0981 10.1495 16.9799 9.92183C16.8618 9.69419 16.8001 9.44148 16.8 9.185V5.215C16.8001 4.95852 16.8618 4.70581 16.9799 4.47817C17.0981 4.25053 17.2693 4.05464 17.479 3.907L21.6145 0.996C21.657 0.965922 21.7024 0.940129 21.75 0.919C21.9936 0.810697 22.2604 0.764979 22.5262 0.786001C22.7919 0.807023 23.0482 0.894118 23.2718 1.03937C23.4953 1.18463 23.679 1.38344 23.8062 1.61774C23.9334 1.85204 24 2.11441 24 2.381V12.019C24 12.4433 23.8314 12.8503 23.5314 13.1504C23.2313 13.4504 22.8243 13.619 22.4 13.619V13.6195ZM12.6 14.4H3.4C2.49855 14.3991 1.63428 14.0406 0.99686 13.4031C0.359437 12.7657 0.000926535 11.9015 0 11V3.4C0.000926535 2.49855 0.359437 1.63428 0.99686 0.99686C1.63428 0.359438 2.49855 0.000926535 3.4 0H12.624C13.519 0.0010586 14.3771 0.357083 15.01 0.989976C15.6429 1.62287 15.9989 2.48095 16 3.376V11C15.9991 11.9015 15.6406 12.7657 15.0031 13.4031C14.3657 14.0406 13.5015 14.3991 12.6 14.4Z" fill="#C4C4C4"/>
</svg>
