<svg width="36" height="33" viewBox="0 0 36 33" fill="none" xmlns="http://www.w3.org/2000/svg">
<path d="M27 16.5C25.7344 16.5 24.75 17.5547 24.75 18.75C24.75 20.0156 25.7344 21 27 21C28.1953 21 29.25 20.0156 29.25 18.75C29.25 17.5547 28.1953 16.5 27 16.5ZM32.625 5.25H31.5V4.125C31.5 2.29688 29.9531 0.75 28.125 0.75H6.75C2.95312 0.75 0 3.77344 0 7.5V25.5C0 29.2969 2.95312 32.25 6.75 32.25H31.5C33.9609 32.25 36 30.2812 36 27.75V8.625C36 6.79688 34.4531 5.25 32.625 5.25ZM33.75 27.75C33.75 29.0156 32.6953 30 31.5 30H6.75C4.21875 30 2.25 28.0312 2.25 25.5V7.5C2.25 5.03906 4.21875 3 6.75 3H28.125C28.6875 3 29.25 3.5625 29.25 4.125V5.25H7.875C7.24219 5.25 6.75 5.8125 6.75 6.375C6.75 7.00781 7.24219 7.5 7.875 7.5H32.625C33.1875 7.5 33.75 8.0625 33.75 8.625V27.75Z" fill="#3EC886"/>
</svg>
