<svg width="24" height="22" viewBox="0 0 24 22" fill="none" xmlns="http://www.w3.org/2000/svg">
<path d="M3.42857 2.99902H20.5714C20.7717 2.99892 20.9717 3.01163 21.1704 3.03705C21.103 2.56443 20.9407 2.11034 20.6931 1.70216C20.4456 1.29397 20.1179 0.940149 19.7299 0.662021C19.3419 0.383893 18.9016 0.187221 18.4355 0.0838628C17.9694 -0.0194959 17.4872 -0.0274003 17.018 0.060626L2.91964 2.46759H2.90357C2.01861 2.63682 1.23164 3.13752 0.703393 3.86741C1.49925 3.30134 2.45193 2.99776 3.42857 2.99902ZM20.5714 4.28473H3.42857C2.51956 4.28573 1.64807 4.64727 1.0053 5.29003C0.362535 5.9328 0.000992601 6.8043 0 7.7133V17.999C0.000992601 18.908 0.362535 19.7795 1.0053 20.4223C1.64807 21.0651 2.51956 21.4266 3.42857 21.4276H20.5714C21.4804 21.4266 22.3519 21.0651 22.9947 20.4223C23.6375 19.7795 23.999 18.908 24 17.999V7.7133C23.999 6.8043 23.6375 5.9328 22.9947 5.29003C22.3519 4.64727 21.4804 4.28573 20.5714 4.28473ZM18.0268 14.5704C17.6877 14.5704 17.3563 14.4699 17.0744 14.2815C16.7925 14.0932 16.5727 13.8254 16.443 13.5122C16.3132 13.1989 16.2793 12.8543 16.3454 12.5217C16.4116 12.1892 16.5749 11.8837 16.8146 11.644C17.0543 11.4042 17.3598 11.241 17.6923 11.1748C18.0249 11.1087 18.3696 11.1426 18.6828 11.2724C18.9961 11.4021 19.2638 11.6218 19.4522 11.9038C19.6405 12.1857 19.7411 12.5171 19.7411 12.8562C19.7411 13.3108 19.5605 13.7469 19.239 14.0683C18.9175 14.3898 18.4814 14.5704 18.0268 14.5704Z" fill="#D4D4D4"/>
<path d="M0.0273438 11.3295V5.99916C0.0273438 4.83827 0.670201 2.89202 2.90145 2.47041C4.7952 2.11523 6.6702 2.11523 6.6702 2.11523C6.6702 2.11523 7.90234 2.97238 6.88449 2.97238C5.86663 2.97238 5.89342 4.28488 6.88449 4.28488C7.87556 4.28488 6.88449 5.54381 6.88449 5.54381L2.89342 10.0706L0.0273438 11.3295Z" fill="#D4D4D4"/>
</svg>
