<svg width="16" height="13" viewBox="0 0 16 13" fill="none" xmlns="http://www.w3.org/2000/svg">
<path d="M1.26997 6.88048L7.55469 12.2389C7.5547 12.2389 7.5547 12.2389 7.5547 12.2389C7.5991 12.2768 7.60727 12.3093 7.60857 12.3253C7.60976 12.3398 7.60719 12.3626 7.58596 12.3909L7.54425 12.4321C7.44096 12.5111 7.26233 12.5252 7.13673 12.4533L7.08074 12.4121L0.255294 6.59239C0.21089 6.55453 0.202722 6.52202 0.201418 6.50602C0.20023 6.49146 0.202801 6.46869 0.224028 6.44037L0.269217 6.39574L7.09435 0.576338C7.21372 0.474554 7.43532 0.474554 7.55469 0.576338C7.5991 0.614199 7.60727 0.646702 7.60857 0.662699C7.60976 0.677266 7.60719 0.700032 7.58596 0.728348L7.54077 0.772981L1.26997 6.11952L0.823717 6.5L1.26997 6.88048Z" fill="#0F442A" stroke="white"/>
<path d="M14.1838 0.195865C14.4622 0.433277 14.4875 0.804788 14.2597 1.06658L14.1838 1.14158L7.89906 6.5L14.1838 11.8584C14.4622 12.0958 14.4875 12.4673 14.2597 12.7291L14.1838 12.8041C13.9053 13.0415 13.4696 13.0631 13.1626 12.8689L13.0746 12.8041L6.23557 6.97286C5.95713 6.73545 5.93182 6.36394 6.15964 6.10214L6.23557 6.02714L13.0746 0.195865C13.3809 -0.0652883 13.8775 -0.0652883 14.1838 0.195865Z" fill="white" fill-opacity="0.54"/>
</svg>
